<svg width="70" height="93" viewBox="0 0 70 93" fill="none" xmlns="http://www.w3.org/2000/svg">
<g clip-path="url(#clip0_84_36)">
<path d="M35 0C15.6708 0 0 15.6708 0 35C0 54.3292 15.6708 70 35 70C54.3292 70 70 54.3292 70 35C70 15.6708 54.3308 0 35 0ZM35.2938 58.5993C31.8023 58.5993 28.4906 57.8352 25.5096 56.4739C24.6877 58.877 23.6811 61.5289 23.6458 61.6284C23.381 62.4134 22.7726 62.9207 22.7726 62.9207C22.7726 62.9207 22.9812 62.2465 24.1386 58.5977C24.2414 58.2734 24.6283 57.1112 24.9301 56.2026C17.0915 52.3644 11.6929 44.3122 11.6929 34.9984C11.6929 21.9651 22.2589 11.3991 35.2922 11.3991C48.3255 11.3991 58.8914 21.9651 58.8914 34.9984C58.8914 48.0317 48.3271 58.5993 35.2938 58.5993Z" fill="#1C1E1F"/>
<path d="M3.16882 33.4653L3.41604 31.2933C3.45938 30.9065 3.51717 30.6207 3.57175 30.4233C3.65201 30.1472 3.76759 29.916 3.91849 29.7459C4.07741 29.5677 4.27968 29.436 4.53492 29.3429C4.78053 29.2578 5.05343 29.2225 5.33435 29.2546C5.82557 29.3108 6.22528 29.5195 6.52708 29.8711C6.83048 30.2146 6.93482 30.7973 6.84171 31.6176L6.67476 33.0897L9.01527 33.3561L8.92858 34.1203L3.16882 33.4653ZM6.16749 31.5245C6.22368 31.0333 6.16749 30.6689 6.00536 30.4474C5.85286 30.2178 5.59922 30.083 5.26853 30.046C5.02774 30.0188 4.81905 30.0589 4.62803 30.16C4.44502 30.2611 4.315 30.4088 4.23473 30.6047C4.18818 30.7299 4.14484 30.9611 4.10631 31.3078L3.93936 32.7798L5.99894 33.0142L6.16749 31.5245Z" fill="white"/>
<path d="M4.8945 26.9913C4.54455 26.3283 4.49318 25.6108 4.75323 24.8354C4.92179 24.3281 5.1995 23.9092 5.58156 23.5849C5.95559 23.2574 6.39544 23.0632 6.90431 22.9957C7.40677 22.9235 7.9333 22.9813 8.48552 23.1659C9.04576 23.3537 9.50648 23.6346 9.86927 24.0039C10.2321 24.3731 10.4616 24.8081 10.5467 25.2977C10.6334 25.7793 10.5997 26.2625 10.4408 26.7393C10.2658 27.261 9.98967 27.68 9.59958 28.0026C9.21753 28.3269 8.76965 28.5195 8.2688 28.5902C7.76956 28.6544 7.27353 28.6078 6.78873 28.4457C5.88335 28.1423 5.25248 27.6575 4.8945 26.9913ZM8.80176 27.6832C9.29619 27.4552 9.63651 27.0748 9.8163 26.537C9.9993 25.9928 9.95756 25.4759 9.69269 24.9943C9.42782 24.5127 8.94142 24.1548 8.23509 23.9188C7.7824 23.7679 7.36503 23.7133 6.98618 23.7486C6.60413 23.792 6.26862 23.9268 5.9877 24.158C5.70677 24.3875 5.50611 24.6797 5.38572 25.0409C5.21395 25.5546 5.24124 26.0602 5.4708 26.5466C5.69875 27.0411 6.22849 27.4231 7.05682 27.6992C7.71659 27.9175 8.2977 27.9159 8.80176 27.6832Z" fill="white"/>
<path d="M6.27502 20.8397L6.69882 20.18L10.3701 21.4883C10.7634 21.6247 11.1342 21.766 11.5066 21.9201C11.0604 21.461 10.8051 21.1993 10.7473 21.1255L8.04565 18.0819L8.5449 17.3049L11.4617 18.1862C12.1841 18.4093 12.8455 18.6517 13.4314 18.923C13.1681 18.6582 12.8679 18.3483 12.526 17.9952L9.8837 15.2196L10.3043 14.5663L14.3191 19.0402L13.921 19.6598L9.5482 18.305C9.18219 18.1862 8.95745 18.1172 8.8804 18.0867C9.0634 18.2809 9.22393 18.4511 9.36038 18.5972L12.4072 22.0164L11.9834 22.6778L6.27502 20.8397Z" fill="white"/>
<path d="M11.5211 13.3832L14.5342 10.4664L15.0126 10.9609L12.5533 13.3431L13.7862 14.6161L16.0882 12.3863L16.5617 12.876L14.2581 15.1057L15.6322 16.5248L18.1863 14.0526L18.6582 14.5406L15.5536 17.5473L11.5211 13.3832Z" fill="white"/>
<path d="M16.1042 9.20472L18.2649 7.82096C18.7015 7.54164 19.0595 7.37951 19.3436 7.31369C19.6246 7.25751 19.9023 7.30085 20.1832 7.4389C20.4593 7.57054 20.6841 7.7712 20.8542 8.03768C21.0774 8.38442 21.1496 8.75203 21.0838 9.13087C21.0115 9.51454 20.7595 9.88696 20.3293 10.2498C20.5524 10.2225 20.7338 10.2209 20.8751 10.2465C21.1753 10.2947 21.4995 10.3942 21.8286 10.5483L23.5254 11.3365L22.7147 11.8566L21.4241 11.2515C21.0452 11.0813 20.7451 10.9561 20.5219 10.8774C20.3036 10.8052 20.1238 10.7667 19.989 10.7667C19.8493 10.7602 19.7289 10.7795 19.6133 10.8244C19.525 10.8517 19.4046 10.9192 19.2345 11.0283L18.4848 11.5083L19.8734 13.6754L19.2329 14.0864L16.1042 9.20472ZM19.5154 10.0571C19.8092 9.8693 20.0227 9.69433 20.1543 9.52256C20.2779 9.35561 20.3357 9.17582 20.3405 8.98961C20.3421 8.79697 20.2908 8.62681 20.1864 8.46468C20.0419 8.23994 19.8381 8.10028 19.5716 8.06015C19.3115 8.0152 18.9985 8.10991 18.6373 8.34107L17.0898 9.33314L18.1252 10.9481L19.5154 10.0571Z" fill="white"/>
<path d="M21.8254 5.81589L25.7359 4.30371L25.9831 4.94422L22.7902 6.18029L23.4307 7.83373L26.4198 6.67632L26.6638 7.31041L23.6747 8.46782L24.3875 10.3091L27.7008 9.02806L27.9464 9.66054L23.9155 11.2209L21.8254 5.81589Z" fill="white"/>
<path d="M27.6622 3.75631L29.6335 3.42081C30.0718 3.34536 30.4217 3.31967 30.6609 3.3277C31.0012 3.35178 31.3046 3.44007 31.5695 3.59899C31.9162 3.80287 32.1939 4.08379 32.4139 4.45622C32.6338 4.83025 32.7815 5.26367 32.8682 5.77415C32.9436 6.2124 32.9597 6.60408 32.9131 6.95725C32.8666 7.31041 32.7847 7.60257 32.6643 7.853C32.5423 8.09539 32.3962 8.30087 32.2341 8.45979C32.0639 8.62032 31.8568 8.75356 31.5968 8.86432C31.3448 8.97348 31.0462 9.05696 30.6962 9.11635L28.6382 9.46631L27.6622 3.75631ZM30.5004 8.4614C30.876 8.39719 31.1634 8.30729 31.3672 8.19813C31.5711 8.097 31.722 7.96537 31.8279 7.81607C31.974 7.6106 32.0768 7.34733 32.1201 7.02627C32.1715 6.70522 32.157 6.32958 32.0848 5.89937C31.9837 5.30059 31.8087 4.85433 31.5534 4.57019C31.3078 4.28285 31.0317 4.10947 30.7331 4.04526C30.5116 4.00032 30.1873 4.02279 29.733 4.10145L28.5355 4.30532L29.2788 8.67008L30.5004 8.4614Z" fill="white"/>
<path d="M36.7193 2.86548L38.8848 3.09664C39.3198 3.14319 39.6682 3.2379 39.9202 3.3872C40.1738 3.52846 40.3633 3.73554 40.4901 3.99399C40.6169 4.25244 40.6635 4.50929 40.6346 4.77416C40.6089 5.02298 40.519 5.24932 40.3585 5.4532C40.206 5.65707 39.986 5.81278 39.6987 5.91231C40.0342 6.05357 40.2894 6.25263 40.4483 6.52231C40.6073 6.792 40.6715 7.09219 40.6362 7.42127C40.6073 7.69417 40.5238 7.93817 40.3857 8.1597C40.2397 8.37963 40.0839 8.54337 39.9009 8.65253C39.7195 8.75526 39.4996 8.82911 39.2428 8.86763C38.9779 8.90456 38.6697 8.90295 38.2989 8.86442L36.1028 8.62845L36.7193 2.86548ZM38.3711 8.18699C38.6199 8.21428 38.7917 8.21589 38.8976 8.21107C39.0694 8.19663 39.2283 8.16452 39.3487 8.10512C39.4788 8.0377 39.5863 7.94299 39.673 7.81457C39.7693 7.67812 39.8271 7.52241 39.8464 7.33619C39.8688 7.1259 39.8319 6.93648 39.7372 6.76311C39.6425 6.58974 39.5012 6.46131 39.315 6.37623C39.1288 6.29115 38.8511 6.22855 38.4803 6.19002L37.1527 6.04715L36.9392 8.03449L38.3711 8.18699ZM38.4722 5.50296C38.8094 5.53828 39.055 5.54149 39.2026 5.5158C39.4017 5.47246 39.5574 5.39862 39.6762 5.2734C39.787 5.14659 39.8528 4.99087 39.8737 4.79021C39.8945 4.59758 39.864 4.4226 39.7918 4.2685C39.7115 4.11278 39.5927 3.9956 39.429 3.92818C39.2653 3.85433 38.9699 3.79815 38.5605 3.75481L37.4095 3.6312L37.2233 5.36972L38.4722 5.50296Z" fill="white"/>
<path d="M43.4406 7.39553L42.2928 3.54285L43.1821 3.81735L43.7568 5.82556C43.8708 6.19959 43.9575 6.57362 44.0329 6.93642C44.2914 6.70365 44.5867 6.43075 44.9367 6.14822L46.5163 4.84794L47.3671 5.11121L44.1758 7.62508L43.4518 9.9688L42.7166 9.74245L43.4406 7.39553Z" fill="white"/>
<path d="M30.4169 67.8891L33.91 60.3458L34.7111 60.3811L37.5235 68.1989L36.4849 68.1539L35.6742 65.8648L32.4508 65.7235L31.4539 67.934L30.4169 67.8891ZM34.2616 61.4888L32.6788 64.9739L35.4912 65.0959L34.2616 61.4888Z" fill="white"/>
<path d="M39.6136 67.8939L38.0645 60.3635L41.2044 59.7182C41.5367 59.6491 41.8561 59.6556 42.1643 59.7358C42.4726 59.8161 42.7503 59.9509 42.9991 60.1388C43.2479 60.3266 43.4582 60.5529 43.63 60.8162C43.8017 61.0795 43.9189 61.3588 43.9799 61.6558C44.0441 61.9672 44.0522 62.2786 44.0056 62.59C43.9591 62.9015 43.8611 63.1904 43.7134 63.4569C43.5658 63.7234 43.3699 63.9513 43.1243 64.1407C42.8803 64.3318 42.5914 64.4602 42.2591 64.5292L40.0101 64.9915L40.5671 67.6964L39.6136 67.8939ZM39.8367 64.1455L42.0311 63.6929C42.2286 63.6527 42.3987 63.5757 42.5416 63.4601C42.6845 63.3461 42.7968 63.2048 42.8803 63.0363C42.9638 62.8677 43.0168 62.6815 43.0424 62.4777C43.0665 62.2738 43.0569 62.0651 43.0135 61.8532C42.9686 61.6333 42.8883 61.4374 42.776 61.2608C42.662 61.0843 42.5287 60.9398 42.3762 60.8226C42.2237 60.707 42.0552 60.6268 41.8738 60.5834C41.6908 60.5401 41.5078 60.5369 41.3248 60.5754L39.193 61.0136L39.8367 64.1455Z" fill="white"/>
<path d="M45.8678 66.5582L45.5355 58.2525L46.2643 57.9186L52.3338 63.5916L51.3883 64.0251L49.6225 62.3572L46.6897 63.7024L46.8117 66.1248L45.8678 66.5582ZM46.3686 59.1097L46.55 62.9335L49.1088 61.76L46.3686 59.1097Z" fill="white"/>
<path d="M50.7061 59.9766C50.4027 59.6057 50.1667 59.1836 49.9965 58.71C49.8264 58.2364 49.7477 57.75 49.7606 57.2524C49.7734 56.7548 49.889 56.2668 50.1073 55.79C50.3256 55.3132 50.6659 54.8846 51.1283 54.5058C51.6773 54.0563 52.252 53.7962 52.8491 53.7224C53.4463 53.6502 54.0033 53.7352 54.5202 53.9776L54.2297 54.8814C53.976 54.761 53.7304 54.6856 53.4912 54.6599C53.2521 54.6326 53.0225 54.6422 52.8042 54.6872C52.5843 54.7305 52.3804 54.8027 52.1894 54.9007C51.9983 54.9986 51.825 55.111 51.6692 55.2394C51.3273 55.5187 51.0833 55.8365 50.9356 56.1929C50.7879 56.5493 50.7173 56.9169 50.7253 57.2909C50.7334 57.6666 50.8088 58.0342 50.9533 58.3938C51.0978 58.7533 51.2888 59.0776 51.5248 59.3682C51.7896 59.6924 52.0947 59.9573 52.4414 60.1612C52.7865 60.3667 53.1477 60.5031 53.5234 60.5721C53.899 60.6412 54.2714 60.6363 54.6406 60.5577C55.0098 60.4774 55.347 60.3137 55.6552 60.0617C55.8173 59.93 55.9666 59.7727 56.1046 59.5929C56.2427 59.4131 56.3519 59.2141 56.4353 58.9973C56.5188 58.779 56.5718 58.5479 56.5975 58.3007C56.6215 58.0534 56.6007 57.7998 56.53 57.5365L57.4723 57.36C57.5622 57.6714 57.5927 57.9892 57.5606 58.3087C57.5285 58.6297 57.4499 58.9412 57.3263 59.2446C57.2027 59.548 57.0421 59.8337 56.8463 60.1002C56.6488 60.3667 56.4321 60.5978 56.1945 60.7921C55.7724 61.1372 55.3084 61.3619 54.8044 61.4647C54.3003 61.569 53.7979 61.5754 53.297 61.4887C52.7962 61.4021 52.3194 61.2255 51.8683 60.9622C51.414 60.699 51.0271 60.3699 50.7061 59.9766Z" fill="white"/>
<path d="M57.8111 47.1809L64.0813 51.6291L63.5179 52.4238L60.6653 50.4011L58.2156 53.8541L61.0682 55.8767L60.5047 56.6713L54.2345 52.2231L54.798 51.4285L57.5093 53.3516L59.9589 49.8986L57.2476 47.9755L57.8111 47.1809Z" fill="white"/>
<path d="M66.4219 43.423L67.2325 43.728L65.3929 48.6128L58.1996 45.9015L60.0039 41.1097L60.8146 41.4147L59.3522 45.2947L61.6831 46.1728L62.9544 42.7985L63.7153 43.0858L62.444 46.4602L64.9257 47.3944L66.4219 43.423Z" fill="white"/>
<path d="M63.237 21.2764C63.2498 22.4386 62.3187 23.3922 61.1565 23.405C59.9943 23.4179 59.0407 22.4868 59.0279 21.3246C59.0151 20.1623 59.9461 19.2088 61.1083 19.196C62.2706 19.1815 63.2241 20.1142 63.237 21.2764Z" fill="white"/>
<path d="M15.2759 54.2345C15.2887 55.3968 14.3577 56.3503 13.1954 56.3632C12.0332 56.376 11.0797 55.4449 11.0668 54.2827C11.054 53.1205 11.9851 52.1669 13.1473 52.1541C14.3095 52.1396 15.2631 53.0707 15.2759 54.2345Z" fill="white"/>
<path d="M48.0574 21.1785H47.5501V22.604H47.3158V21.1785H46.8117V20.9634H48.0574V21.1785ZM50.011 22.604H49.7959V21.3037L49.2373 22.4322H49.0896L48.531 21.3037V22.604H48.3159V20.9634H48.5968L49.1634 22.1079L49.7269 20.9634H50.0126V22.604H50.011Z" fill="#6D6E71"/>
<path d="M42.3843 16.2165C41.6427 16.6548 40.413 17.8924 38.9442 19.6855L40.2943 22.2331C41.2414 20.8783 42.2045 19.6583 43.1757 18.618C43.2512 18.5362 43.2897 18.496 43.2897 18.496C43.2512 18.5362 43.2143 18.5779 43.1757 18.618C42.8627 18.9648 41.9092 20.0756 40.4708 22.2845C41.8546 22.2155 43.9832 21.9329 45.7185 21.636C46.2354 18.7432 45.2128 17.4205 45.2128 17.4205C45.2128 17.4205 43.911 15.316 42.3843 16.2165Z" fill="#1C1E1F"/>
<path d="M37.851 37.615C37.6792 37.6455 37.501 37.6776 37.3196 37.7081C37.318 37.7081 37.318 37.7097 37.3164 37.7097C37.4079 37.6969 37.4994 37.6824 37.5877 37.6664C37.676 37.6503 37.7643 37.6326 37.851 37.615Z" fill="#BE202E"/>
<path opacity="0.35" d="M37.851 37.615C37.6792 37.6455 37.501 37.6776 37.3196 37.7081C37.318 37.7081 37.318 37.7097 37.3164 37.7097C37.4079 37.6969 37.4994 37.6824 37.5877 37.6664C37.676 37.6503 37.7643 37.6326 37.851 37.615Z" fill="#BE202E"/>
<path d="M38.302 35.3869C38.3004 35.3885 38.2988 35.3885 38.2988 35.3885C38.3277 35.3853 38.355 35.3805 38.3839 35.3757C38.4979 35.3596 38.6119 35.3388 38.721 35.3147C38.5846 35.3388 38.4449 35.3629 38.302 35.3869Z" fill="#BE202E"/>
<path opacity="0.35" d="M38.302 35.3869C38.3004 35.3885 38.2988 35.3885 38.2988 35.3885C38.3277 35.3853 38.355 35.3805 38.3839 35.3757C38.4979 35.3596 38.6119 35.3388 38.721 35.3147C38.5846 35.3388 38.4449 35.3629 38.302 35.3869Z" fill="#BE202E"/>
<path d="M36.3148 28.8181C36.7257 28.0524 37.1399 27.3011 37.5605 26.5723C37.9971 25.8146 38.4369 25.0794 38.8832 24.3698C38.9089 24.3281 38.9362 24.2864 38.9619 24.2446C39.4017 23.5479 39.8464 22.8769 40.2943 22.2364L38.9442 19.6888C38.8431 19.8124 38.7403 19.9393 38.6376 20.0677C38.2475 20.5525 37.8446 21.0742 37.4288 21.628C36.9617 22.2525 36.4801 22.9171 35.9937 23.617C35.5426 24.2623 35.0867 24.9381 34.6292 25.6396C34.2391 26.2352 33.849 26.8484 33.4622 27.4777C33.4477 27.5018 33.4333 27.5242 33.4188 27.5483L35.175 31.0189C35.5506 30.2709 35.9295 29.5373 36.3148 28.8181Z" fill="#1C1E1F"/>
<path d="M28.314 48.3672C28.0812 49.0061 27.8484 49.6578 27.6141 50.3208C27.6109 50.3304 27.6076 50.3401 27.6044 50.3497C27.5707 50.4428 27.5386 50.5375 27.5049 50.6322C27.3476 51.0801 27.2095 51.483 26.8949 52.4013C27.4118 52.6372 27.8276 53.2585 28.2209 53.9632C28.1791 53.2328 27.8773 52.5473 27.3026 52.016C29.855 52.1316 32.0527 51.4863 33.1876 49.6209C33.2887 49.454 33.3818 49.2806 33.4669 49.0944C32.95 49.7493 32.3111 50.027 31.104 49.9596C31.1007 49.9612 31.0991 49.9612 31.0959 49.9628C31.0991 49.9612 31.1007 49.9612 31.104 49.9596C32.8794 49.165 33.7687 48.4025 34.5569 47.1391C34.7431 46.839 34.9245 46.5115 35.1107 46.1487C33.56 47.7427 31.7605 48.1954 29.8663 47.8519L28.4456 48.0076C28.4007 48.128 28.3573 48.2468 28.314 48.3672Z" fill="#1C1E1F"/>
<path d="M28.977 45.1855C29.2836 44.3925 29.5998 43.5899 29.9257 42.7808C30.2371 42.0055 30.555 41.2253 30.8825 40.4419C31.2083 39.6569 31.5422 38.8719 31.8826 38.0854C32.2293 37.2859 32.5825 36.4865 32.9437 35.6919C33.3 34.9053 33.6628 34.1235 34.032 33.3498C34.1653 33.0704 34.2985 32.7927 34.4334 32.515C34.6661 32.0366 34.9005 31.5615 35.1381 31.0895C35.1509 31.0638 35.1638 31.0398 35.1766 31.0141L33.4204 27.5435C33.3915 27.59 33.3626 27.6382 33.3337 27.6847C32.9244 28.3525 32.5166 29.0364 32.1169 29.7347C31.7124 30.4394 31.3159 31.1586 30.929 31.8874C30.6015 32.5022 30.2821 33.1218 29.9723 33.7479C29.9097 33.8747 29.8487 34.0015 29.7877 34.1267C29.4056 34.9149 29.0589 35.6758 28.7458 36.4078C28.3911 37.2378 28.0796 38.0292 27.8067 38.7804C27.627 39.2749 27.4632 39.7516 27.3139 40.2091C27.1903 40.6008 27.0747 40.9925 26.9624 41.3826C26.7007 42.3024 26.4744 43.2191 26.2881 44.1341L28.0524 47.6175C28.2851 46.9947 28.5243 46.3622 28.7715 45.7217C28.8373 45.5451 28.908 45.3653 28.977 45.1855Z" fill="#1C1E1F"/>
<path d="M26.2625 44.2561C26.0409 45.3717 25.8836 46.481 25.805 47.5854C25.8017 47.6239 25.7985 47.6625 25.7953 47.701C25.2447 46.8181 23.7695 45.9561 23.7727 45.9641C24.8289 47.4939 25.63 49.0141 25.7488 50.507C25.1837 50.6226 24.4084 50.4557 23.5142 50.1266C24.4469 50.9838 25.1484 51.2214 25.4213 51.284C24.5641 51.337 23.6715 51.9261 22.771 52.6051C24.0873 52.069 25.1484 51.8555 25.9109 52.0288C24.7037 55.4465 23.4933 59.2173 22.283 63.2225C22.6538 63.1117 22.8753 62.8645 22.9989 62.5258C23.214 61.8002 24.6459 57.0421 26.8885 50.788C26.9527 50.6098 27.0169 50.4316 27.0812 50.2518C27.0988 50.202 27.1181 50.1523 27.1357 50.1009C27.3733 49.4459 27.6189 48.7749 27.8726 48.0927C27.9303 47.937 27.9881 47.7813 28.0475 47.6255C28.0491 47.6223 28.0491 47.6191 28.0507 47.6159L26.2865 44.1324C26.2801 44.1742 26.2705 44.2159 26.2625 44.2561Z" fill="#1C1E1F"/>
<path d="M35.4479 31.3062C35.3981 31.409 35.3467 31.5133 35.2954 31.6177C35.1429 31.9307 34.9888 32.2518 34.8331 32.5792C34.6645 32.934 34.4943 33.2952 34.3226 33.666C34.2359 33.8522 34.1492 34.04 34.0609 34.2311C33.7977 34.8025 33.5312 35.3917 33.2615 36.0017C32.9292 36.7498 32.5905 37.5283 32.2486 38.3358C31.9211 39.1047 31.5888 39.9025 31.2533 40.726C30.9338 41.5078 30.6112 42.3153 30.2837 43.15C29.9915 43.8933 29.6978 44.6558 29.4008 45.4392C29.3863 45.4761 29.3719 45.5146 29.3574 45.5531C29.0621 46.3317 28.7651 47.1311 28.4649 47.9514C28.4585 47.9707 28.4505 47.9883 28.444 48.0076L29.8647 47.8519C29.8358 47.8471 29.8085 47.8439 29.7796 47.8374C31.478 47.6256 33.7367 46.3574 35.1959 44.7906C35.8685 44.0682 36.4785 43.2174 37.0435 42.2206C37.4641 41.4789 37.8574 40.6554 38.233 39.7452C38.5621 38.949 38.8768 38.0886 39.1802 37.1543C38.7901 37.3598 38.3438 37.5107 37.8494 37.615C37.7627 37.6327 37.6744 37.6503 37.5861 37.6664C37.4962 37.6824 37.4063 37.6969 37.3148 37.7097C37.3164 37.7097 37.3164 37.7081 37.318 37.7081C38.9025 37.0997 39.9009 35.923 40.6265 34.4815C40.2108 34.7656 39.5333 35.1381 38.7211 35.3162C38.6103 35.3403 38.4979 35.3596 38.3839 35.3772C38.3551 35.3821 38.3278 35.3869 38.2989 35.3901C38.3005 35.3901 38.3005 35.3901 38.3021 35.3885H38.3037C38.8527 35.1589 39.3166 34.9005 39.7195 34.5971C39.8062 34.5313 39.8897 34.4654 39.97 34.3948C40.0936 34.2889 40.2092 34.1765 40.3215 34.0593C40.3922 33.9839 40.4628 33.9068 40.5286 33.8265C40.6859 33.6387 40.8336 33.4364 40.9717 33.2165C41.0134 33.1491 41.0551 33.0801 41.0969 33.011C41.1499 32.9083 41.1996 32.8088 41.2494 32.7125C41.4709 32.2678 41.6475 31.8713 41.7888 31.523C41.8594 31.3496 41.9204 31.1874 41.9734 31.0382C41.9942 30.9788 42.0151 30.921 42.0328 30.8648C42.0889 30.6978 42.1339 30.5485 42.1708 30.4185C42.2238 30.2227 42.2575 30.067 42.2752 29.9546C42.2222 29.9963 42.1596 30.0397 42.0905 30.0798C41.6122 30.3655 40.7919 30.6256 40.1305 30.7476L41.4356 30.6047L40.1305 30.7476C40.1209 30.7492 40.1112 30.7508 40.1016 30.754C40.0358 30.7653 39.9684 30.7749 39.9025 30.7861C39.9138 30.7813 39.925 30.7749 39.9363 30.7701L35.4736 31.2597C35.4639 31.2725 35.4559 31.2886 35.4479 31.3062Z" fill="#1C1E1F"/>
<path d="M40.4708 22.2861C40.0743 22.8945 39.6409 23.5864 39.1738 24.3698C39.1497 24.4099 39.124 24.4533 39.0999 24.4934C38.697 25.1708 38.27 25.9157 37.8205 26.7312C37.432 27.4359 37.0275 28.1904 36.6069 29.0026C36.2409 29.7106 35.8621 30.4618 35.4736 31.2548L39.9363 30.7652C41.2365 30.1681 41.8177 29.6271 42.3811 28.8437C42.5304 28.6286 42.6813 28.4023 42.8306 28.1695C43.2897 27.4535 43.7392 26.6653 44.1405 25.8836C44.529 25.1275 44.8709 24.3762 45.1326 23.702C45.2995 23.2718 45.4344 22.8721 45.5259 22.5205C45.6077 22.2107 45.6703 21.9169 45.7201 21.636C43.9832 21.9346 41.8546 22.2171 40.4708 22.2861Z" fill="#1C1E1F"/>
<path d="M37.5877 37.6648C37.4978 37.6808 37.4079 37.6953 37.3164 37.7081C37.4079 37.6953 37.4978 37.6808 37.5877 37.6648Z" fill="#BE202E"/>
<path opacity="0.35" d="M37.5877 37.6648C37.4978 37.6808 37.4079 37.6953 37.3164 37.7081C37.4079 37.6953 37.4978 37.6808 37.5877 37.6648Z" fill="#BE202E"/>
<path d="M37.5877 37.6648C37.4978 37.6808 37.4079 37.6953 37.3164 37.7081C37.4079 37.6953 37.4978 37.6808 37.5877 37.6648Z" fill="url(#paint0_linear_84_36)"/>
<path d="M38.2988 35.3885C38.3277 35.3852 38.355 35.3804 38.3839 35.3756C38.355 35.3804 38.3277 35.3852 38.2988 35.3885Z" fill="#BE202E"/>
<path opacity="0.35" d="M38.2988 35.3885C38.3277 35.3852 38.355 35.3804 38.3839 35.3756C38.355 35.3804 38.3277 35.3852 38.2988 35.3885Z" fill="#BE202E"/>
<path d="M38.2988 35.3885C38.3277 35.3852 38.355 35.3804 38.3839 35.3756C38.355 35.3804 38.3277 35.3852 38.2988 35.3885Z" fill="url(#paint1_linear_84_36)"/>
</g>
<path d="M17.6513 90H16.245L18.8054 82.7273H20.4318L22.9957 90H21.5895L19.647 84.2188H19.5902L17.6513 90ZM17.6974 87.1484H21.5327V88.2067H17.6974V87.1484ZM23.8968 92.0455V84.5455H25.161V85.4474H25.2356C25.3019 85.3149 25.3954 85.174 25.5162 85.0249C25.6369 84.8733 25.8002 84.7443 26.0062 84.6378C26.2122 84.5289 26.475 84.4744 26.7946 84.4744C27.216 84.4744 27.5959 84.5821 27.9345 84.7976C28.2754 85.0107 28.5453 85.3267 28.7441 85.7457C28.9454 86.1624 29.046 86.6738 29.046 87.2798C29.046 87.8788 28.9477 88.3878 28.7512 88.8068C28.5547 89.2259 28.2872 89.5455 27.9487 89.7656C27.6101 89.9858 27.2266 90.0959 26.7981 90.0959C26.4856 90.0959 26.2264 90.0438 26.0204 89.9396C25.8145 89.8355 25.6487 89.71 25.5233 89.5632C25.4002 89.4141 25.3043 89.2732 25.2356 89.1406H25.1824V92.0455H23.8968ZM25.1575 87.2727C25.1575 87.6255 25.2072 87.9344 25.3066 88.1996C25.4084 88.4647 25.554 88.6719 25.7434 88.821C25.9352 88.9678 26.1672 89.0412 26.4395 89.0412C26.7235 89.0412 26.9615 88.9654 27.1532 88.8139C27.345 88.66 27.4894 88.4505 27.5865 88.1854C27.6859 87.9179 27.7356 87.6136 27.7356 87.2727C27.7356 86.9342 27.6871 86.6335 27.59 86.3707C27.493 86.108 27.3485 85.902 27.1568 85.7528C26.965 85.6037 26.7259 85.5291 26.4395 85.5291C26.1648 85.5291 25.9316 85.6013 25.7399 85.7457C25.5481 85.8902 25.4025 86.0926 25.3031 86.353C25.206 86.6134 25.1575 86.92 25.1575 87.2727ZM31.7164 90.1101C31.3708 90.1101 31.0595 90.0485 30.7825 89.9254C30.5079 89.8 30.2901 89.6153 30.1291 89.3714C29.9705 89.1276 29.8912 88.8269 29.8912 88.4695C29.8912 88.1617 29.948 87.9072 30.0616 87.706C30.1752 87.5047 30.3303 87.3438 30.5268 87.223C30.7233 87.1023 30.9447 87.0111 31.1909 86.9496C31.4395 86.8857 31.6963 86.8395 31.9615 86.8111C32.2811 86.7779 32.5403 86.7483 32.7392 86.7223C32.938 86.6939 33.0824 86.6513 33.1724 86.5945C33.2647 86.5353 33.3109 86.4441 33.3109 86.321V86.2997C33.3109 86.0322 33.2316 85.825 33.073 85.6783C32.9144 85.5315 32.6859 85.4581 32.3876 85.4581C32.0727 85.4581 31.823 85.5268 31.6383 85.6641C31.456 85.8014 31.3329 85.9635 31.269 86.1506L30.0687 85.9801C30.1634 85.6487 30.3197 85.3717 30.5375 85.1491C30.7553 84.9242 31.0216 84.7562 31.3365 84.6449C31.6513 84.5312 31.9993 84.4744 32.3805 84.4744C32.6433 84.4744 32.9049 84.5052 33.1653 84.5668C33.4257 84.6283 33.6636 84.7301 33.8791 84.8722C34.0945 85.0118 34.2673 85.2024 34.3975 85.4439C34.5301 85.6854 34.5964 85.9872 34.5964 86.3494V90H33.3606V89.2507H33.318C33.2399 89.4022 33.1298 89.5443 32.9877 89.6768C32.8481 89.8071 32.6717 89.9124 32.4586 89.9929C32.2479 90.071 32.0005 90.1101 31.7164 90.1101ZM32.0502 89.1655C32.3083 89.1655 32.532 89.1146 32.7214 89.0128C32.9108 88.9086 33.0564 88.7713 33.1582 88.6009C33.2624 88.4304 33.3145 88.2446 33.3145 88.0433V87.4006C33.2742 87.4337 33.2056 87.4645 33.1085 87.4929C33.0138 87.5213 32.9073 87.5462 32.7889 87.5675C32.6705 87.5888 32.5533 87.6077 32.4373 87.6243C32.3213 87.6409 32.2207 87.6551 32.1355 87.6669C31.9437 87.6929 31.7721 87.7356 31.6206 87.7947C31.469 87.8539 31.3495 87.9368 31.2619 88.0433C31.1743 88.1475 31.1305 88.2824 31.1305 88.4482C31.1305 88.6849 31.2169 88.8636 31.3897 88.9844C31.5626 89.1051 31.7827 89.1655 32.0502 89.1655ZM38.2683 90.1065C37.7238 90.1065 37.2562 89.987 36.8656 89.7479C36.4773 89.5088 36.1779 89.1785 35.9672 88.7571C35.7588 88.3333 35.6547 87.8456 35.6547 87.294C35.6547 86.7401 35.7612 86.2512 35.9743 85.8274C36.1873 85.4013 36.488 85.0698 36.8762 84.8331C37.2669 84.594 37.7285 84.4744 38.2612 84.4744C38.7039 84.4744 39.0957 84.5561 39.4366 84.7195C39.7799 84.8804 40.0533 85.1089 40.2569 85.4048C40.4605 85.6984 40.5765 86.0417 40.6049 86.4347H39.3762C39.3265 86.1719 39.2082 85.9529 39.0211 85.7777C38.8365 85.6001 38.5891 85.5114 38.2789 85.5114C38.0162 85.5114 37.7853 85.5824 37.5865 85.7244C37.3876 85.8641 37.2325 86.0653 37.1213 86.3281C37.0124 86.5909 36.9579 86.9058 36.9579 87.2727C36.9579 87.6444 37.0124 87.964 37.1213 88.2315C37.2302 88.4967 37.3829 88.7015 37.5794 88.8459C37.7782 88.9879 38.0114 89.0589 38.2789 89.0589C38.4683 89.0589 38.6376 89.0234 38.7868 88.9524C38.9383 88.879 39.0649 88.7737 39.1667 88.6364C39.2685 88.4991 39.3384 88.3321 39.3762 88.1357H40.6049C40.5742 88.5215 40.4605 88.8636 40.264 89.1619C40.0675 89.4579 39.8 89.6899 39.4615 89.858C39.1229 90.0237 38.7252 90.1065 38.2683 90.1065ZM42.946 86.804V90H41.6605V82.7273H42.9176V85.4723H42.9815C43.1094 85.1645 43.3071 84.9219 43.5746 84.7443C43.8445 84.5644 44.1877 84.4744 44.6044 84.4744C44.9832 84.4744 45.3134 84.5537 45.5952 84.7124C45.8769 84.871 46.0947 85.103 46.2486 85.4084C46.4048 85.7138 46.483 86.0866 46.483 86.527V90H45.1974V86.7259C45.1974 86.3589 45.1027 86.0736 44.9134 85.87C44.7263 85.6641 44.4635 85.5611 44.125 85.5611C43.8977 85.5611 43.6941 85.6108 43.5142 85.7102C43.3366 85.8073 43.197 85.9482 43.0952 86.1328C42.9957 86.3175 42.946 86.5412 42.946 86.804ZM50.2081 90.1065C49.6612 90.1065 49.1889 89.9929 48.7912 89.7656C48.3958 89.536 48.0916 89.2116 47.8786 88.7926C47.6655 88.3712 47.5589 87.8752 47.5589 87.3047C47.5589 86.7436 47.6655 86.2512 47.8786 85.8274C48.094 85.4013 48.3946 85.0698 48.7805 84.8331C49.1664 84.594 49.6198 84.4744 50.1406 84.4744C50.4768 84.4744 50.794 84.5289 51.0923 84.6378C51.393 84.7443 51.6581 84.91 51.8878 85.1349C52.1198 85.3598 52.3021 85.6463 52.4347 85.9943C52.5672 86.34 52.6335 86.7519 52.6335 87.2301V87.6243H48.1626V86.7578H51.4013C51.3989 86.5116 51.3456 86.2926 51.2415 86.1009C51.1373 85.9067 50.9917 85.754 50.8047 85.6428C50.62 85.5315 50.4046 85.4759 50.1584 85.4759C49.8956 85.4759 49.6648 85.5398 49.4659 85.6676C49.267 85.7931 49.112 85.9588 49.0007 86.1648C48.8918 86.3684 48.8362 86.5921 48.8338 86.8359V87.5923C48.8338 87.9096 48.8918 88.1818 49.0078 88.4091C49.1238 88.634 49.286 88.8068 49.4943 88.9276C49.7027 89.0459 49.9465 89.1051 50.2259 89.1051C50.4129 89.1051 50.5821 89.0791 50.7337 89.027C50.8852 88.9725 51.0166 88.8932 51.1278 88.7891C51.2391 88.6849 51.3232 88.5559 51.38 88.402L52.5803 88.5369C52.5045 88.8542 52.3601 89.1312 52.147 89.3679C51.9363 89.6023 51.6664 89.7846 51.3374 89.9148C51.0083 90.0426 50.6319 90.1065 50.2081 90.1065Z" fill="#1C1E1F"/>
<defs>
<linearGradient id="paint0_linear_84_36" x1="24.9633" y1="64.4709" x2="45.0763" y2="21.3364" gradientUnits="userSpaceOnUse">
<stop offset="0.3233" stop-color="#9E2064"/>
<stop offset="0.6302" stop-color="#C92037"/>
<stop offset="0.7514" stop-color="#CD2335"/>
<stop offset="1" stop-color="#E97826"/>
</linearGradient>
<linearGradient id="paint1_linear_84_36" x1="24.8111" y1="64.4023" x2="44.9266" y2="21.2654" gradientUnits="userSpaceOnUse">
<stop offset="0.3233" stop-color="#9E2064"/>
<stop offset="0.6302" stop-color="#C92037"/>
<stop offset="0.7514" stop-color="#CD2335"/>
<stop offset="1" stop-color="#E97826"/>
</linearGradient>
<clipPath id="clip0_84_36">
<rect width="70" height="70" fill="white"/>
</clipPath>
</defs>
</svg>
