<svg width="16" height="12" viewBox="0 0 16 12" fill="none" xmlns="http://www.w3.org/2000/svg">
<path d="M15 7.253C12.8383 7.87806 10.4754 8.22222 8 8.22222C5.52457 8.22222 3.16168 7.87806 1 7.253M11.1111 3.22222V2.11111C11.1111 1.49746 10.4147 1 9.55556 1H6.44444C5.58533 1 4.88889 1.49746 4.88889 2.11111V3.22222M8 6.55556H8.00778M2.55556 11H13.4444C14.3036 11 15 10.5026 15 9.88889V4.33333C15 3.71968 14.3036 3.22222 13.4444 3.22222H2.55556C1.69645 3.22222 1 3.71968 1 4.33333V9.88889C1 10.5026 1.69645 11 2.55556 11Z" stroke="white" stroke-linecap="round" stroke-linejoin="round"/>
</svg>
