<svg width="59" height="85" viewBox="0 0 59 85" fill="none" xmlns="http://www.w3.org/2000/svg">
<path d="M22.9425 78.1811H21.6143C21.5765 77.9633 21.5066 77.7704 21.4048 77.6023C21.303 77.4318 21.1764 77.2874 21.0249 77.169C20.8733 77.0507 20.7005 76.9619 20.5064 76.9027C20.3146 76.8411 20.1075 76.8104 19.8849 76.8104C19.4896 76.8104 19.1392 76.9098 18.8338 77.1087C18.5284 77.3052 18.2893 77.594 18.1165 77.9751C17.9437 78.3539 17.8572 78.8168 17.8572 79.3636C17.8572 79.92 17.9437 80.3887 18.1165 80.7699C18.2917 81.1487 18.5308 81.4351 18.8338 81.6293C19.1392 81.821 19.4884 81.9169 19.8814 81.9169C20.0992 81.9169 20.3028 81.8885 20.4922 81.8317C20.6839 81.7725 20.8556 81.6861 21.0071 81.5724C21.161 81.4588 21.29 81.3191 21.3942 81.1534C21.5007 80.9877 21.5741 80.7983 21.6143 80.5852L22.9425 80.5923C22.8928 80.938 22.785 81.2623 22.6193 81.5653C22.456 81.8684 22.2417 82.1359 21.9766 82.3679C21.7114 82.5975 21.4013 82.7775 21.0462 82.9077C20.6911 83.0355 20.2969 83.0994 19.8636 83.0994C19.2244 83.0994 18.6539 82.9515 18.152 82.6555C17.6501 82.3596 17.2547 81.9323 16.9659 81.3736C16.6771 80.8149 16.5327 80.1449 16.5327 79.3636C16.5327 78.58 16.6783 77.91 16.9695 77.3537C17.2607 76.795 17.6572 76.3677 18.1591 76.0717C18.661 75.7758 19.2292 75.6278 19.8636 75.6278C20.2685 75.6278 20.6449 75.6847 20.9929 75.7983C21.3409 75.9119 21.651 76.0788 21.9233 76.299C22.1955 76.5168 22.4193 76.7843 22.5945 77.1016C22.772 77.4164 22.888 77.7763 22.9425 78.1811ZM28.1014 77.7266C28.0682 77.4164 27.9286 77.175 27.6824 77.0021C27.4385 76.8293 27.1213 76.7429 26.7306 76.7429C26.456 76.7429 26.2205 76.7843 26.024 76.8672C25.8275 76.95 25.6771 77.0625 25.573 77.2045C25.4688 77.3466 25.4155 77.5088 25.4132 77.6911C25.4132 77.8426 25.4475 77.974 25.5162 78.0852C25.5872 78.1965 25.6831 78.2912 25.8038 78.3693C25.9245 78.4451 26.0583 78.509 26.2051 78.5611C26.3519 78.6132 26.4998 78.657 26.649 78.6925L27.3308 78.8629C27.6054 78.9268 27.8694 79.0133 28.1227 79.1222C28.3784 79.2311 28.6068 79.3684 28.8081 79.5341C29.0117 79.6998 29.1726 79.8999 29.291 80.1342C29.4094 80.3686 29.4686 80.6432 29.4686 80.9581C29.4686 81.3842 29.3597 81.7595 29.1419 82.0838C28.9241 82.4058 28.6092 82.6579 28.1973 82.8402C27.7877 83.0201 27.2917 83.1101 26.7093 83.1101C26.1435 83.1101 25.6523 83.0225 25.2356 82.8473C24.8213 82.6721 24.497 82.4164 24.2626 82.0803C24.0306 81.7441 23.9051 81.3345 23.8862 80.8516H25.1824C25.2013 81.1049 25.2794 81.3156 25.4167 81.4837C25.554 81.6518 25.7328 81.7772 25.9529 81.8601C26.1755 81.9429 26.4241 81.9844 26.6987 81.9844C26.9851 81.9844 27.2361 81.9418 27.4515 81.8565C27.6693 81.7689 27.8398 81.6482 27.9629 81.4943C28.086 81.3381 28.1487 81.1558 28.1511 80.9474C28.1487 80.758 28.0931 80.6018 27.9842 80.4787C27.8753 80.3532 27.7226 80.2491 27.5261 80.1662C27.332 80.081 27.1047 80.0052 26.8443 79.9389L26.0169 79.7259C25.4179 79.572 24.9444 79.3388 24.5964 79.0263C24.2508 78.7114 24.0779 78.2936 24.0779 77.7727C24.0779 77.3442 24.194 76.969 24.426 76.647C24.6603 76.325 24.9788 76.0753 25.3812 75.8977C25.7837 75.7178 26.2394 75.6278 26.7484 75.6278C27.2645 75.6278 27.7167 75.7178 28.1049 75.8977C28.4956 76.0753 28.8021 76.3227 29.0247 76.6399C29.2472 76.9548 29.362 77.317 29.3691 77.7266H28.1014ZM34.5955 77.7266C34.5624 77.4164 34.4227 77.175 34.1765 77.0021C33.9326 76.8293 33.6154 76.7429 33.2248 76.7429C32.9502 76.7429 32.7146 76.7843 32.5181 76.8672C32.3216 76.95 32.1713 77.0625 32.0671 77.2045C31.9629 77.3466 31.9097 77.5088 31.9073 77.6911C31.9073 77.8426 31.9416 77.974 32.0103 78.0852C32.0813 78.1965 32.1772 78.2912 32.2979 78.3693C32.4187 78.4451 32.5524 78.509 32.6992 78.5611C32.846 78.6132 32.994 78.657 33.1431 78.6925L33.8249 78.8629C34.0996 78.9268 34.3635 79.0133 34.6168 79.1222C34.8725 79.2311 35.101 79.3684 35.3022 79.5341C35.5058 79.6998 35.6668 79.8999 35.7852 80.1342C35.9035 80.3686 35.9627 80.6432 35.9627 80.9581C35.9627 81.3842 35.8538 81.7595 35.636 82.0838C35.4182 82.4058 35.1033 82.6579 34.6914 82.8402C34.2818 83.0201 33.7859 83.1101 33.2035 83.1101C32.6377 83.1101 32.1464 83.0225 31.7298 82.8473C31.3155 82.6721 30.9911 82.4164 30.7567 82.0803C30.5247 81.7441 30.3993 81.3345 30.3803 80.8516H31.6765C31.6954 81.1049 31.7736 81.3156 31.9109 81.4837C32.0482 81.6518 32.2269 81.7772 32.4471 81.8601C32.6696 81.9429 32.9182 81.9844 33.1928 81.9844C33.4793 81.9844 33.7302 81.9418 33.9457 81.8565C34.1635 81.7689 34.3339 81.6482 34.457 81.4943C34.5801 81.3381 34.6429 81.1558 34.6452 80.9474C34.6429 80.758 34.5872 80.6018 34.4783 80.4787C34.3694 80.3532 34.2167 80.2491 34.0202 80.1662C33.8261 80.081 33.5988 80.0052 33.3384 79.9389L32.511 79.7259C31.9121 79.572 31.4386 79.3388 31.0906 79.0263C30.7449 78.7114 30.5721 78.2936 30.5721 77.7727C30.5721 77.3442 30.6881 76.969 30.9201 76.647C31.1545 76.325 31.4729 76.0753 31.8754 75.8977C32.2778 75.7178 32.7335 75.6278 33.2425 75.6278C33.7586 75.6278 34.2108 75.7178 34.5991 75.8977C34.9897 76.0753 35.2963 76.3227 35.5188 76.6399C35.7414 76.9548 35.8562 77.317 35.8633 77.7266H34.5955ZM39.6763 83.0994C39.165 83.0994 38.7104 83.0118 38.3127 82.8366C37.9173 82.6615 37.6048 82.4176 37.3752 82.1051C37.1455 81.7926 37.0236 81.4316 37.0094 81.022H38.3446C38.3565 81.2185 38.4216 81.3902 38.54 81.5369C38.6583 81.6813 38.8158 81.7938 39.0123 81.8743C39.2087 81.9548 39.4289 81.995 39.6728 81.995C39.9332 81.995 40.164 81.95 40.3652 81.8601C40.5665 81.7678 40.7239 81.6399 40.8375 81.4766C40.9512 81.3132 41.0068 81.125 41.0044 80.9119C41.0068 80.6918 40.95 80.4976 40.834 80.3295C40.718 80.1615 40.5499 80.0301 40.3297 79.9354C40.1119 79.8407 39.8491 79.7933 39.5414 79.7933H38.8986V78.7777H39.5414C39.7947 78.7777 40.016 78.7339 40.2054 78.6463C40.3972 78.5587 40.5475 78.4356 40.6564 78.277C40.7653 78.116 40.8186 77.9302 40.8162 77.7195C40.8186 77.5135 40.7724 77.3348 40.6777 77.1832C40.5854 77.0294 40.454 76.9098 40.2836 76.8246C40.1155 76.7393 39.9178 76.6967 39.6905 76.6967C39.468 76.6967 39.262 76.737 39.0726 76.8175C38.8832 76.898 38.7305 77.0128 38.6145 77.1619C38.4985 77.3087 38.437 77.4839 38.4299 77.6875H37.1621C37.1716 77.2803 37.2888 76.9228 37.5137 76.6151C37.7409 76.3049 38.044 76.0634 38.4228 75.8906C38.8016 75.7154 39.2265 75.6278 39.6976 75.6278C40.1829 75.6278 40.6043 75.719 40.9618 75.9013C41.3217 76.0812 41.5998 76.3239 41.7963 76.6293C41.9928 76.9347 42.0911 77.272 42.0911 77.6413C42.0935 78.0509 41.9727 78.3942 41.7289 78.6712C41.4874 78.9482 41.1702 79.1293 40.7772 79.2145V79.2713C41.2885 79.3423 41.6803 79.5317 41.9526 79.8395C42.2272 80.1449 42.3633 80.5249 42.361 80.9794C42.361 81.3866 42.245 81.7512 42.013 82.0732C41.7833 82.3928 41.4661 82.6437 41.0613 82.826C40.6588 83.0083 40.1971 83.0994 39.6763 83.0994Z" fill="white"/>
<path d="M0 0H59L53.6338 56.6029L29.4354 63L5.37181 56.6003L0 0ZM48.0148 11.5841L10.9852 11.5762L11.5837 18.459L40.0301 18.4642L39.3137 25.5938H20.6584L21.3327 32.3479H38.7012L37.6729 41.5957L29.4972 43.7062L21.1922 41.58L20.664 36.0412H13.3312L14.146 46.1606L29.5 50.631L44.5956 46.6147L48.0148 11.5868V11.5841Z" fill="white"/>
</svg>
