<svg width="60" height="86" viewBox="0 0 71 106" fill="none" xmlns="http://www.w3.org/2000/svg">
<path d="M28.9425 99.1811H27.6143C27.5765 98.9633 27.5066 98.7704 27.4048 98.6023C27.303 98.4318 27.1764 98.2874 27.0249 98.169C26.8733 98.0507 26.7005 97.9619 26.5064 97.9027C26.3146 97.8411 26.1075 97.8104 25.8849 97.8104C25.4896 97.8104 25.1392 97.9098 24.8338 98.1087C24.5284 98.3052 24.2893 98.594 24.1165 98.9751C23.9437 99.3539 23.8572 99.8168 23.8572 100.364C23.8572 100.92 23.9437 101.389 24.1165 101.77C24.2917 102.149 24.5308 102.435 24.8338 102.629C25.1392 102.821 25.4884 102.917 25.8814 102.917C26.0992 102.917 26.3028 102.888 26.4922 102.832C26.6839 102.772 26.8556 102.686 27.0071 102.572C27.161 102.459 27.29 102.319 27.3942 102.153C27.5007 101.988 27.5741 101.798 27.6143 101.585L28.9425 101.592C28.8928 101.938 28.785 102.262 28.6193 102.565C28.456 102.868 28.2417 103.136 27.9766 103.368C27.7114 103.598 27.4013 103.777 27.0462 103.908C26.6911 104.036 26.2969 104.099 25.8636 104.099C25.2244 104.099 24.6539 103.951 24.152 103.656C23.6501 103.36 23.2547 102.932 22.9659 102.374C22.6771 101.815 22.5327 101.145 22.5327 100.364C22.5327 99.58 22.6783 98.91 22.9695 98.3537C23.2607 97.795 23.6572 97.3677 24.1591 97.0717C24.661 96.7758 25.2292 96.6278 25.8636 96.6278C26.2685 96.6278 26.6449 96.6847 26.9929 96.7983C27.3409 96.9119 27.651 97.0788 27.9233 97.299C28.1955 97.5168 28.4193 97.7843 28.5945 98.1016C28.772 98.4164 28.888 98.7763 28.9425 99.1811ZM34.1014 98.7266C34.0682 98.4164 33.9286 98.175 33.6824 98.0021C33.4385 97.8293 33.1213 97.7429 32.7306 97.7429C32.456 97.7429 32.2205 97.7843 32.024 97.8672C31.8275 97.95 31.6771 98.0625 31.573 98.2045C31.4688 98.3466 31.4155 98.5088 31.4132 98.6911C31.4132 98.8426 31.4475 98.974 31.5162 99.0852C31.5872 99.1965 31.6831 99.2912 31.8038 99.3693C31.9245 99.4451 32.0583 99.509 32.2051 99.5611C32.3519 99.6132 32.4998 99.657 32.649 99.6925L33.3308 99.8629C33.6054 99.9268 33.8694 100.013 34.1227 100.122C34.3784 100.231 34.6068 100.368 34.8081 100.534C35.0117 100.7 35.1726 100.9 35.291 101.134C35.4094 101.369 35.4686 101.643 35.4686 101.958C35.4686 102.384 35.3597 102.759 35.1419 103.084C34.9241 103.406 34.6092 103.658 34.1973 103.84C33.7877 104.02 33.2917 104.11 32.7093 104.11C32.1435 104.11 31.6523 104.022 31.2356 103.847C30.8213 103.672 30.497 103.416 30.2626 103.08C30.0306 102.744 29.9051 102.335 29.8862 101.852H31.1824C31.2013 102.105 31.2794 102.316 31.4167 102.484C31.554 102.652 31.7328 102.777 31.9529 102.86C32.1755 102.943 32.4241 102.984 32.6987 102.984C32.9851 102.984 33.2361 102.942 33.4515 102.857C33.6693 102.769 33.8398 102.648 33.9629 102.494C34.086 102.338 34.1487 102.156 34.1511 101.947C34.1487 101.758 34.0931 101.602 33.9842 101.479C33.8753 101.353 33.7226 101.249 33.5261 101.166C33.332 101.081 33.1047 101.005 32.8443 100.939L32.0169 100.726C31.4179 100.572 30.9444 100.339 30.5964 100.026C30.2508 99.7114 30.0779 99.2936 30.0779 98.7727C30.0779 98.3442 30.194 97.969 30.426 97.647C30.6603 97.325 30.9788 97.0753 31.3812 96.8977C31.7837 96.7178 32.2394 96.6278 32.7484 96.6278C33.2645 96.6278 33.7167 96.7178 34.1049 96.8977C34.4956 97.0753 34.8021 97.3227 35.0247 97.6399C35.2472 97.9548 35.362 98.317 35.3691 98.7266H34.1014ZM40.5955 98.7266C40.5624 98.4164 40.4227 98.175 40.1765 98.0021C39.9326 97.8293 39.6154 97.7429 39.2248 97.7429C38.9502 97.7429 38.7146 97.7843 38.5181 97.8672C38.3216 97.95 38.1713 98.0625 38.0671 98.2045C37.9629 98.3466 37.9097 98.5088 37.9073 98.6911C37.9073 98.8426 37.9416 98.974 38.0103 99.0852C38.0813 99.1965 38.1772 99.2912 38.2979 99.3693C38.4187 99.4451 38.5524 99.509 38.6992 99.5611C38.846 99.6132 38.994 99.657 39.1431 99.6925L39.8249 99.8629C40.0996 99.9268 40.3635 100.013 40.6168 100.122C40.8725 100.231 41.101 100.368 41.3022 100.534C41.5058 100.7 41.6668 100.9 41.7852 101.134C41.9035 101.369 41.9627 101.643 41.9627 101.958C41.9627 102.384 41.8538 102.759 41.636 103.084C41.4182 103.406 41.1033 103.658 40.6914 103.84C40.2818 104.02 39.7859 104.11 39.2035 104.11C38.6377 104.11 38.1464 104.022 37.7298 103.847C37.3155 103.672 36.9911 103.416 36.7567 103.08C36.5247 102.744 36.3993 102.335 36.3803 101.852H37.6765C37.6954 102.105 37.7736 102.316 37.9109 102.484C38.0482 102.652 38.2269 102.777 38.4471 102.86C38.6696 102.943 38.9182 102.984 39.1928 102.984C39.4793 102.984 39.7302 102.942 39.9457 102.857C40.1635 102.769 40.3339 102.648 40.457 102.494C40.5801 102.338 40.6429 102.156 40.6452 101.947C40.6429 101.758 40.5872 101.602 40.4783 101.479C40.3694 101.353 40.2167 101.249 40.0202 101.166C39.8261 101.081 39.5988 101.005 39.3384 100.939L38.511 100.726C37.9121 100.572 37.4386 100.339 37.0906 100.026C36.7449 99.7114 36.5721 99.2936 36.5721 98.7727C36.5721 98.3442 36.6881 97.969 36.9201 97.647C37.1545 97.325 37.4729 97.0753 37.8754 96.8977C38.2778 96.7178 38.7335 96.6278 39.2425 96.6278C39.7586 96.6278 40.2108 96.7178 40.5991 96.8977C40.9897 97.0753 41.2963 97.3227 41.5188 97.6399C41.7414 97.9548 41.8562 98.317 41.8633 98.7266H40.5955ZM45.6763 104.099C45.165 104.099 44.7104 104.012 44.3127 103.837C43.9173 103.661 43.6048 103.418 43.3752 103.105C43.1455 102.793 43.0236 102.432 43.0094 102.022H44.3446C44.3565 102.219 44.4216 102.39 44.54 102.537C44.6583 102.681 44.8158 102.794 45.0123 102.874C45.2087 102.955 45.4289 102.995 45.6728 102.995C45.9332 102.995 46.164 102.95 46.3652 102.86C46.5665 102.768 46.7239 102.64 46.8375 102.477C46.9512 102.313 47.0068 102.125 47.0044 101.912C47.0068 101.692 46.95 101.498 46.834 101.33C46.718 101.161 46.5499 101.03 46.3297 100.935C46.1119 100.841 45.8491 100.793 45.5414 100.793H44.8986V99.7777H45.5414C45.7947 99.7777 46.016 99.7339 46.2054 99.6463C46.3972 99.5587 46.5475 99.4356 46.6564 99.277C46.7653 99.116 46.8186 98.9302 46.8162 98.7195C46.8186 98.5135 46.7724 98.3348 46.6777 98.1832C46.5854 98.0294 46.454 97.9098 46.2836 97.8246C46.1155 97.7393 45.9178 97.6967 45.6905 97.6967C45.468 97.6967 45.262 97.737 45.0726 97.8175C44.8832 97.898 44.7305 98.0128 44.6145 98.1619C44.4985 98.3087 44.437 98.4839 44.4299 98.6875H43.1621C43.1716 98.2803 43.2888 97.9228 43.5137 97.6151C43.7409 97.3049 44.044 97.0634 44.4228 96.8906C44.8016 96.7154 45.2265 96.6278 45.6976 96.6278C46.1829 96.6278 46.6043 96.719 46.9618 96.9013C47.3217 97.0812 47.5998 97.3239 47.7963 97.6293C47.9928 97.9347 48.0911 98.272 48.0911 98.6413C48.0935 99.0509 47.9727 99.3942 47.7289 99.6712C47.4874 99.9482 47.1702 100.129 46.7772 100.214V100.271C47.2885 100.342 47.6803 100.532 47.9526 100.839C48.2272 101.145 48.3633 101.525 48.361 101.979C48.361 102.387 48.245 102.751 48.013 103.073C47.7833 103.393 47.4661 103.644 47.0613 103.826C46.6588 104.008 46.1971 104.099 45.6763 104.099Z" fill="white"/>
<path d="M0 0H71L64.5424 75.4705L35.4222 84L6.46438 75.467L0 0ZM57.7805 15.4455L13.2195 15.435L13.9397 24.612L48.1718 24.619L47.3097 34.125H24.8601L25.6716 43.1305H46.5726L45.3352 55.461L35.4966 58.275L25.5025 55.44L24.8669 48.055H16.0426L17.0231 61.5475L35.5 67.508L53.6659 62.153L57.7805 15.449V15.4455Z" fill="white"/>
</svg>
