<svg width="73" height="93" viewBox="0 0 73 93" fill="none" xmlns="http://www.w3.org/2000/svg">
<path d="M34.5895 86.0497C34.5303 85.858 34.4486 85.6863 34.3445 85.5348C34.2427 85.3809 34.1196 85.2495 33.9751 85.1406C33.8331 85.0317 33.6697 84.95 33.4851 84.8956C33.3004 84.8388 33.0992 84.8104 32.8814 84.8104C32.4908 84.8104 32.1428 84.9086 31.8374 85.1051C31.532 85.3016 31.2917 85.5904 31.1165 85.9716C30.9437 86.3504 30.8572 86.812 30.8572 87.3565C30.8572 87.9058 30.9437 88.371 31.1165 88.7521C31.2893 89.1333 31.5296 89.4233 31.8374 89.6222C32.1451 89.8187 32.5026 89.9169 32.9098 89.9169C33.2791 89.9169 33.5987 89.8459 33.8686 89.7038C34.1409 89.5618 34.3504 89.3606 34.4972 89.1001C34.6439 88.8374 34.7173 88.5296 34.7173 88.1768L35.0156 88.223H33.0412V87.1932H35.9922V88.0668C35.9922 88.6894 35.8596 89.228 35.5945 89.6825C35.3293 90.1371 34.9647 90.4875 34.5007 90.7337C34.0367 90.9775 33.504 91.0994 32.9027 91.0994C32.2327 91.0994 31.6444 90.9491 31.1378 90.6484C30.6335 90.3454 30.2393 89.9157 29.9553 89.3594C29.6735 88.8007 29.5327 88.1378 29.5327 87.3707C29.5327 86.7836 29.6155 86.2592 29.7812 85.7976C29.9493 85.3359 30.1837 84.9441 30.4844 84.6222C30.785 84.2978 31.1378 84.0516 31.5426 83.8835C31.9474 83.7131 32.3878 83.6278 32.8636 83.6278C33.2661 83.6278 33.6413 83.687 33.9893 83.8054C34.3374 83.9214 34.6463 84.0871 34.9162 84.3026C35.1884 84.518 35.4122 84.7737 35.5874 85.0696C35.7625 85.3655 35.8774 85.6922 35.9318 86.0497H34.5895ZM37.5511 91V85.5455H38.8366V91H37.5511ZM38.1974 84.7713C37.9938 84.7713 37.8187 84.7038 37.6719 84.5689C37.5251 84.4316 37.4517 84.267 37.4517 84.0753C37.4517 83.8812 37.5251 83.7166 37.6719 83.5817C37.8187 83.4444 37.9938 83.3757 38.1974 83.3757C38.4034 83.3757 38.5786 83.4444 38.723 83.5817C38.8698 83.7166 38.9432 83.8812 38.9432 84.0753C38.9432 84.267 38.8698 84.4316 38.723 84.5689C38.5786 84.7038 38.4034 84.7713 38.1974 84.7713ZM42.8823 85.5455V86.5398H39.7466V85.5455H42.8823ZM40.5208 84.2386H41.8063V89.3594C41.8063 89.5322 41.8323 89.6648 41.8844 89.7571C41.9389 89.8471 42.0099 89.9086 42.0975 89.9418C42.1851 89.9749 42.2821 89.9915 42.3887 89.9915C42.4692 89.9915 42.5426 89.9856 42.6088 89.9737C42.6775 89.9619 42.7296 89.9512 42.7651 89.9418L42.9817 90.9467C42.9131 90.9704 42.8148 90.9964 42.687 91.0249C42.5615 91.0533 42.4076 91.0698 42.2253 91.0746C41.9033 91.084 41.6133 91.0355 41.3553 90.929C41.0972 90.8201 40.8925 90.652 40.7409 90.4247C40.5918 90.1974 40.5184 89.9134 40.5208 89.5724V84.2386Z" fill="#1C1E1F"/>
<path d="M69.1438 33.1481L40.3095 4.00519C38.1291 1.80152 34.5681 1.80533 32.3925 4.01367L3.85452 32.9809C1.71783 35.1498 1.72163 38.6333 3.86306 40.7975L32.7473 69.9883C34.9303 72.1945 38.4963 72.1875 40.6707 69.9729L69.1588 40.9577C71.2892 38.788 71.2825 35.3096 69.1438 33.1481Z" fill="#1C1E1F" stroke="#1C1E1F" stroke-width="2.0228"/>
<path d="M68.7376 33.9714L39.484 4.28377C39.0836 3.8768 38.608 3.55394 38.0845 3.33366C37.5611 3.11338 36.9999 3 36.4332 3C35.8666 3 35.3054 3.11338 34.7819 3.33366C34.2585 3.55394 33.7829 3.8768 33.3825 4.28377L27.3072 10.4497L35.0114 18.2688C35.9172 17.9566 36.8909 17.9078 37.8226 18.1281C38.7542 18.3483 39.6065 18.8287 40.2832 19.515C40.9634 20.2063 41.4384 21.0778 41.6541 22.03C41.8698 22.9822 41.8175 23.9767 41.503 24.9002L48.928 32.4366C49.8377 32.1157 50.8181 32.0616 51.7568 32.2805C52.6954 32.4993 53.5543 32.9823 54.2348 33.6739C54.7115 34.1577 55.0897 34.7321 55.3478 35.3642C55.6058 35.9964 55.7386 36.6739 55.7386 37.3581C55.7386 38.0424 55.6058 38.7199 55.3478 39.3521C55.0897 39.9842 54.7115 40.5586 54.2348 41.0424C53.2715 42.0196 51.9652 42.5686 50.6032 42.5686C49.2412 42.5686 47.935 42.0196 46.9717 41.0424C46.2547 40.3151 45.7659 39.3886 45.5671 38.3798C45.3683 37.3709 45.4684 36.325 45.8546 35.3738L38.9277 28.3457V46.8442C39.6588 47.2107 40.2934 47.7488 40.7788 48.4138C41.2643 49.0788 41.5866 49.8516 41.7192 50.6682C41.8517 51.4849 41.7907 52.3218 41.5411 53.1097C41.2915 53.8976 40.8605 54.6138 40.2839 55.1991C39.8072 55.6829 39.2413 56.0668 38.6184 56.3287C37.9956 56.5905 37.328 56.7253 36.6538 56.7253C35.9796 56.7253 35.312 56.5905 34.6892 56.3287C34.0663 56.0668 33.5004 55.6829 33.0237 55.1991C32.5468 54.7153 32.1686 54.1409 31.9105 53.5086C31.6524 52.8764 31.5195 52.1988 31.5195 51.5145C31.5195 50.8301 31.6524 50.1525 31.9105 49.5203C32.1686 48.8881 32.5468 48.3137 33.0237 47.8299C33.5046 47.3406 34.0767 46.9535 34.7066 46.691L34.7066 28.0223C34.0767 27.7613 33.5045 27.3751 33.0237 26.8864C32.3037 26.1547 31.8143 25.2224 31.6174 24.2079C31.4206 23.1933 31.5254 22.1422 31.9183 21.1882L24.322 13.4786L4.26449 33.8323C3.8636 34.239 3.5456 34.7218 3.32864 35.2533C3.11167 35.7848 3 36.3544 3 36.9297C3 37.5049 3.11167 38.0746 3.32864 38.606C3.5456 39.1375 3.8636 39.6203 4.26449 40.027L33.5188 69.7184C34.3282 70.539 35.4255 71 36.5696 71C37.7137 71 38.811 70.539 39.6204 69.7184L68.7376 40.1662C69.546 39.3441 70 38.2302 70 37.0688C70 35.9074 69.546 34.7934 68.7376 33.9714Z" fill="white"/>
</svg>
