<svg width="12" height="12" viewBox="0 0 12 12" fill="none" xmlns="http://www.w3.org/2000/svg">
<path d="M4.03124 11.4688C4.03124 11.4688 3.59374 9.71875 4.46874 8.84375C4.46874 8.84375 2.71874 8.84375 1.40624 7.53125C0.0937393 6.21875 0.531239 3.59375 1.40624 2.71875C0.968739 1.40625 1.84374 0.53125 1.84374 0.53125C1.84374 0.53125 3.15624 0.53125 4.03124 1.40625C4.90624 0.96875 7.09374 0.96875 7.96874 1.40625C8.84374 0.53125 10.1562 0.53125 10.1562 0.53125C10.1562 0.53125 11.0312 1.40625 10.5937 2.71875C11.4687 3.59375 11.9062 6.21875 10.5937 7.53125C9.28124 8.84375 7.53124 8.84375 7.53124 8.84375C8.40624 9.71875 7.96874 11.4688 7.96874 11.4688" stroke="#1C1E1F" stroke-linecap="round" stroke-linejoin="round"/>
</svg>
