<svg width="59" height="85" viewBox="0 0 59 85" fill="none" xmlns="http://www.w3.org/2000/svg">
<path d="M29.4674 62.4832L5.83141 56.3107L0.549554 0.5H58.4503L53.1524 56.2954L29.4674 62.4832Z" fill="white" stroke="white"/>
<path d="M29.5 58.1762L49.0149 53.0768L53.6171 4.64001H29.5V58.1762Z" fill="white"/>
<path d="M29.5 25.6656H19.7263L19.0596 18.5448H29.5V11.5924H29.4675H10.9772L11.1561 13.4607L12.9774 32.6179H29.5V25.6656Z" fill="#1C1E1F"/>
<path d="M29.5 43.7356H29.4674L21.2387 41.6376L20.7183 36.0941H16.7177H13.3026L14.3434 47.0127L29.4674 50.9789L29.5 50.9636V43.7356Z" fill="#1C1E1F"/>
<path d="M29.4675 25.6656V32.618H38.5745L37.7126 41.6377L29.4675 43.7357V50.9637L44.6078 47.0128L44.7217 45.8489L46.4617 27.5339L46.6406 25.6656H44.6566H29.4675Z" fill="#1C1E1F"/>
<path d="M29.4675 11.5924V15.9108V18.5295V18.5448H47.2911H47.3074L47.4538 16.9828L47.7953 13.4607L47.9741 11.5924H29.4675Z" fill="#1C1E1F"/>
<path d="M11.7173 83V75.7273H13.0348V78.8061H16.4048V75.7273H17.7259V83H16.4048V79.9105H13.0348V83H11.7173ZM18.8391 76.8317V75.7273H24.6417V76.8317H22.3938V83H21.087V76.8317H18.8391ZM25.7603 75.7273H27.3725L29.5316 80.9972H29.6168L31.7759 75.7273H33.3881V83H32.1239V78.0036H32.0565L30.0465 82.9787H29.1019L27.092 77.9929H27.0245V83H25.7603V75.7273ZM34.8228 83V75.7273H36.1403V81.8956H39.3434V83H34.8228ZM42.9442 83.0994C42.4708 83.0994 42.047 83.0107 41.6729 82.8331C41.2989 82.6532 41.0018 82.407 40.7816 82.0945C40.5638 81.782 40.4478 81.4245 40.4336 81.022H41.712C41.7357 81.3203 41.8647 81.5642 42.0991 81.7536C42.3335 81.9406 42.6152 82.0341 42.9442 82.0341C43.2023 82.0341 43.4319 81.9749 43.6332 81.8565C43.8344 81.7382 43.993 81.5736 44.109 81.3629C44.225 81.1522 44.2818 80.9119 44.2795 80.642C44.2818 80.3674 44.2238 80.1236 44.1055 79.9105C43.9871 79.6974 43.8249 79.5305 43.619 79.4098C43.413 79.2867 43.1763 79.2251 42.9087 79.2251C42.6909 79.2228 42.4767 79.263 42.266 79.3459C42.0553 79.4287 41.8884 79.5376 41.7653 79.6726L40.5756 79.4773L40.9556 75.7273H45.1744V76.8281H42.0458L41.8363 78.7564H41.8789C42.0138 78.5978 42.2044 78.4664 42.4506 78.3622C42.6969 78.2557 42.9667 78.2024 43.2603 78.2024C43.7006 78.2024 44.0936 78.3066 44.4393 78.5149C44.7849 78.7209 45.0572 79.005 45.256 79.3672C45.4549 79.7294 45.5543 80.1437 45.5543 80.6101C45.5543 81.0907 45.4431 81.5192 45.2205 81.8956C45.0004 82.2696 44.6938 82.5644 44.3008 82.7798C43.9102 82.9929 43.458 83.0994 42.9442 83.0994Z" fill="white"/>
</svg>
