<svg width="60" height="86" viewBox="0 0 60 86" fill="none" xmlns="http://www.w3.org/2000/svg">
<path d="M8.58665 75.7273H9.89347V80.8409C9.8911 81.3097 9.79167 81.7133 9.59517 82.0518C9.39867 82.388 9.12405 82.6473 8.77131 82.8295C8.42093 83.0095 8.01255 83.0994 7.54616 83.0994C7.12003 83.0994 6.73651 83.0237 6.3956 82.8722C6.05705 82.7183 5.78835 82.491 5.58949 82.1903C5.39063 81.8897 5.29119 81.5156 5.29119 81.0682H6.60156C6.60393 81.2647 6.64654 81.4339 6.7294 81.576C6.81463 81.718 6.93182 81.8269 7.08097 81.9027C7.23011 81.9785 7.40175 82.0163 7.59588 82.0163C7.80658 82.0163 7.98532 81.9725 8.1321 81.8849C8.27888 81.795 8.39015 81.6624 8.46591 81.4872C8.54403 81.312 8.58428 81.0966 8.58665 80.8409V75.7273ZM12.8356 83.1101C12.4899 83.1101 12.1786 83.0485 11.9016 82.9254C11.627 82.8 11.4092 82.6153 11.2482 82.3714C11.0896 82.1276 11.0103 81.8269 11.0103 81.4695C11.0103 81.1617 11.0671 80.9072 11.1808 80.706C11.2944 80.5047 11.4495 80.3438 11.646 80.223C11.8424 80.1023 12.0638 80.0111 12.31 79.9496C12.5586 79.8857 12.8155 79.8395 13.0806 79.8111C13.4002 79.7779 13.6594 79.7483 13.8583 79.7223C14.0572 79.6939 14.2016 79.6513 14.2915 79.5945C14.3839 79.5353 14.43 79.4441 14.43 79.321V79.2997C14.43 79.0322 14.3507 78.825 14.1921 78.6783C14.0335 78.5315 13.805 78.4581 13.5067 78.4581C13.1919 78.4581 12.9421 78.5268 12.7575 78.6641C12.5752 78.8014 12.4521 78.9635 12.3881 79.1506L11.1879 78.9801C11.2826 78.6487 11.4388 78.3717 11.6566 78.1491C11.8744 77.9242 12.1407 77.7562 12.4556 77.6449C12.7705 77.5312 13.1185 77.4744 13.4996 77.4744C13.7624 77.4744 14.024 77.5052 14.2844 77.5668C14.5449 77.6283 14.7828 77.7301 14.9982 77.8722C15.2137 78.0118 15.3865 78.2024 15.5167 78.4439C15.6493 78.6854 15.7156 78.9872 15.7156 79.3494V83H14.4798V82.2507H14.4371C14.359 82.4022 14.2489 82.5443 14.1069 82.6768C13.9672 82.8071 13.7908 82.9124 13.5778 82.9929C13.3671 83.071 13.1197 83.1101 12.8356 83.1101ZM13.1694 82.1655C13.4274 82.1655 13.6512 82.1146 13.8406 82.0128C14.0299 81.9086 14.1755 81.7713 14.2773 81.6009C14.3815 81.4304 14.4336 81.2446 14.4336 81.0433V80.4006C14.3933 80.4337 14.3247 80.4645 14.2276 80.4929C14.1329 80.5213 14.0264 80.5462 13.908 80.5675C13.7897 80.5888 13.6725 80.6077 13.5565 80.6243C13.4405 80.6409 13.3398 80.6551 13.2546 80.6669C13.0629 80.6929 12.8912 80.7356 12.7397 80.7947C12.5882 80.8539 12.4686 80.9368 12.381 81.0433C12.2934 81.1475 12.2496 81.2824 12.2496 81.4482C12.2496 81.6849 12.3361 81.8636 12.5089 81.9844C12.6817 82.1051 12.9019 82.1655 13.1694 82.1655ZM21.685 77.5455L19.7425 83H18.3221L16.3796 77.5455H17.7504L19.0039 81.5973H19.0607L20.3178 77.5455H21.685ZM23.9879 83.1101C23.6423 83.1101 23.331 83.0485 23.054 82.9254C22.7794 82.8 22.5616 82.6153 22.4006 82.3714C22.242 82.1276 22.1626 81.8269 22.1626 81.4695C22.1626 81.1617 22.2195 80.9072 22.3331 80.706C22.4467 80.5047 22.6018 80.3438 22.7983 80.223C22.9948 80.1023 23.2161 80.0111 23.4624 79.9496C23.7109 79.8857 23.9678 79.8395 24.233 79.8111C24.5526 79.7779 24.8118 79.7483 25.0107 79.7223C25.2095 79.6939 25.3539 79.6513 25.4439 79.5945C25.5362 79.5353 25.5824 79.4441 25.5824 79.321V79.2997C25.5824 79.0322 25.5031 78.825 25.3445 78.6783C25.1858 78.5315 24.9574 78.4581 24.6591 78.4581C24.3442 78.4581 24.0945 78.5268 23.9098 78.6641C23.7275 78.8014 23.6044 78.9635 23.5405 79.1506L22.3402 78.9801C22.4349 78.6487 22.5911 78.3717 22.8089 78.1491C23.0268 77.9242 23.2931 77.7562 23.608 77.6449C23.9228 77.5312 24.2708 77.4744 24.652 77.4744C24.9148 77.4744 25.1764 77.5052 25.4368 77.5668C25.6972 77.6283 25.9351 77.7301 26.1506 77.8722C26.366 78.0118 26.5388 78.2024 26.669 78.4439C26.8016 78.6854 26.8679 78.9872 26.8679 79.3494V83H25.6321V82.2507H25.5895C25.5114 82.4022 25.4013 82.5443 25.2592 82.6768C25.1196 82.8071 24.9432 82.9124 24.7301 82.9929C24.5194 83.071 24.272 83.1101 23.9879 83.1101ZM24.3217 82.1655C24.5798 82.1655 24.8035 82.1146 24.9929 82.0128C25.1823 81.9086 25.3279 81.7713 25.4297 81.6009C25.5339 81.4304 25.5859 81.2446 25.5859 81.0433V80.4006C25.5457 80.4337 25.477 80.4645 25.38 80.4929C25.2853 80.5213 25.1787 80.5462 25.0604 80.5675C24.942 80.5888 24.8248 80.6077 24.7088 80.6243C24.5928 80.6409 24.4922 80.6551 24.407 80.6669C24.2152 80.6929 24.0436 80.7356 23.892 80.7947C23.7405 80.8539 23.621 80.9368 23.5334 81.0433C23.4458 81.1475 23.402 81.2824 23.402 81.4482C23.402 81.6849 23.4884 81.8636 23.6612 81.9844C23.834 82.1051 24.0542 82.1655 24.3217 82.1655ZM32.4716 78.9872L31.2997 79.1151C31.2666 78.9967 31.2086 78.8854 31.1257 78.7812C31.0452 78.6771 30.9363 78.593 30.799 78.5291C30.6617 78.4652 30.4936 78.4332 30.2947 78.4332C30.0272 78.4332 29.8023 78.4912 29.62 78.6072C29.4401 78.7232 29.3513 78.8736 29.3537 79.0582C29.3513 79.2169 29.4093 79.3459 29.5277 79.4453C29.6484 79.5447 29.8473 79.6264 30.1243 79.6903L31.0547 79.8892C31.5708 80.0005 31.9543 80.1768 32.2053 80.4183C32.4586 80.6598 32.5864 80.9759 32.5888 81.3665C32.5864 81.7098 32.4858 82.0128 32.2869 82.2756C32.0904 82.536 31.817 82.7396 31.4666 82.8864C31.1162 83.0331 30.7138 83.1065 30.2592 83.1065C29.5916 83.1065 29.0542 82.9669 28.647 82.6875C28.2398 82.4058 27.9972 82.014 27.919 81.5121L29.1726 81.3913C29.2294 81.6375 29.3501 81.8234 29.5348 81.9489C29.7195 82.0743 29.9598 82.1371 30.2557 82.1371C30.5611 82.1371 30.8061 82.0743 30.9908 81.9489C31.1778 81.8234 31.2713 81.6683 31.2713 81.4837C31.2713 81.3274 31.2109 81.1984 31.0902 81.0966C30.9718 80.9948 30.7872 80.9167 30.5362 80.8622L29.6058 80.6669C29.0826 80.558 28.6955 80.3745 28.4446 80.1165C28.1937 79.8561 28.0694 79.527 28.0717 79.1293C28.0694 78.7931 28.1605 78.5019 28.3452 78.2557C28.5322 78.0071 28.7914 77.8153 29.1229 77.6804C29.4567 77.5431 29.8414 77.4744 30.277 77.4744C30.9162 77.4744 31.4193 77.6106 31.7862 77.8828C32.1555 78.1551 32.384 78.5232 32.4716 78.9872ZM36.0281 83.1065C35.4835 83.1065 35.016 82.987 34.6254 82.7479C34.2371 82.5088 33.9376 82.1785 33.7269 81.7571C33.5186 81.3333 33.4144 80.8456 33.4144 80.294C33.4144 79.7401 33.521 79.2512 33.734 78.8274C33.9471 78.4013 34.2478 78.0698 34.636 77.8331C35.0266 77.594 35.4883 77.4744 36.021 77.4744C36.4637 77.4744 36.8555 77.5561 37.1964 77.7195C37.5397 77.8804 37.8131 78.1089 38.0167 78.4048C38.2203 78.6984 38.3363 79.0417 38.3647 79.4347H37.136C37.0863 79.1719 36.9679 78.9529 36.7809 78.7777C36.5962 78.6001 36.3488 78.5114 36.0387 78.5114C35.7759 78.5114 35.5451 78.5824 35.3462 78.7244C35.1474 78.8641 34.9923 79.0653 34.881 79.3281C34.7721 79.5909 34.7177 79.9058 34.7177 80.2727C34.7177 80.6444 34.7721 80.964 34.881 81.2315C34.9899 81.4967 35.1426 81.7015 35.3391 81.8459C35.538 81.9879 35.7712 82.0589 36.0387 82.0589C36.2281 82.0589 36.3974 82.0234 36.5465 81.9524C36.698 81.879 36.8247 81.7737 36.9265 81.6364C37.0283 81.4991 37.0981 81.3321 37.136 81.1357H38.3647C38.3339 81.5215 38.2203 81.8636 38.0238 82.1619C37.8273 82.4579 37.5598 82.6899 37.2212 82.858C36.8827 83.0237 36.485 83.1065 36.0281 83.1065ZM39.4203 83V77.5455H40.6667V78.4545H40.7235C40.823 78.1397 40.9934 77.897 41.2349 77.7266C41.4788 77.5537 41.7569 77.4673 42.0694 77.4673C42.1404 77.4673 42.2198 77.4709 42.3074 77.478C42.3973 77.4827 42.4719 77.491 42.5311 77.5028V78.6854C42.4766 78.6664 42.3902 78.6499 42.2718 78.6357C42.1558 78.6191 42.0434 78.6108 41.9345 78.6108C41.7001 78.6108 41.4894 78.6617 41.3024 78.7635C41.1177 78.8629 40.9721 79.0014 40.8656 79.179C40.7591 79.3565 40.7058 79.5613 40.7058 79.7933V83H39.4203ZM43.3851 83V77.5455H44.6706V83H43.3851ZM44.0314 76.7713C43.8278 76.7713 43.6526 76.7038 43.5059 76.5689C43.3591 76.4316 43.2857 76.267 43.2857 76.0753C43.2857 75.8812 43.3591 75.7166 43.5059 75.5817C43.6526 75.4444 43.8278 75.3757 44.0314 75.3757C44.2374 75.3757 44.4126 75.4444 44.557 75.5817C44.7038 75.7166 44.7772 75.8812 44.7772 76.0753C44.7772 76.267 44.7038 76.4316 44.557 76.5689C44.4126 76.7038 44.2374 76.7713 44.0314 76.7713ZM45.9925 85.0455V77.5455H47.2567V78.4474H47.3313C47.3976 78.3149 47.4911 78.174 47.6119 78.0249C47.7326 77.8733 47.896 77.7443 48.1019 77.6378C48.3079 77.5289 48.5707 77.4744 48.8903 77.4744C49.3117 77.4744 49.6916 77.5821 50.0302 77.7976C50.3711 78.0107 50.641 78.3267 50.8398 78.7457C51.0411 79.1624 51.1417 79.6738 51.1417 80.2798C51.1417 80.8788 51.0434 81.3878 50.8469 81.8068C50.6504 82.2259 50.3829 82.5455 50.0444 82.7656C49.7058 82.9858 49.3223 83.0959 48.8938 83.0959C48.5813 83.0959 48.3221 83.0438 48.1161 82.9396C47.9102 82.8355 47.7444 82.71 47.619 82.5632C47.4959 82.4141 47.4 82.2732 47.3313 82.1406H47.2781V85.0455H45.9925ZM47.2532 80.2727C47.2532 80.6255 47.3029 80.9344 47.4023 81.1996C47.5041 81.4647 47.6497 81.6719 47.8391 81.821C48.0309 81.9678 48.2629 82.0412 48.5352 82.0412C48.8192 82.0412 49.0572 81.9654 49.2489 81.8139C49.4407 81.66 49.5851 81.4505 49.6822 81.1854C49.7816 80.9179 49.8313 80.6136 49.8313 80.2727C49.8313 79.9342 49.7828 79.6335 49.6857 79.3707C49.5887 79.108 49.4442 78.902 49.2525 78.7528C49.0607 78.6037 48.8216 78.5291 48.5352 78.5291C48.2605 78.5291 48.0273 78.6013 47.8356 78.7457C47.6438 78.8902 47.4982 79.0926 47.3988 79.353C47.3017 79.6134 47.2532 79.92 47.2532 80.2727ZM54.9663 77.5455V78.5398H51.8306V77.5455H54.9663ZM52.6048 76.2386H53.8903V81.3594C53.8903 81.5322 53.9163 81.6648 53.9684 81.7571C54.0228 81.8471 54.0939 81.9086 54.1815 81.9418C54.2691 81.9749 54.3661 81.9915 54.4727 81.9915C54.5531 81.9915 54.6265 81.9856 54.6928 81.9737C54.7615 81.9619 54.8136 81.9512 54.8491 81.9418L55.0657 82.9467C54.997 82.9704 54.8988 82.9964 54.771 83.0249C54.6455 83.0533 54.4916 83.0698 54.3093 83.0746C53.9873 83.084 53.6973 83.0355 53.4393 82.929C53.1812 82.8201 52.9764 82.652 52.8249 82.4247C52.6758 82.1974 52.6024 81.9134 52.6048 81.5724V76.2386Z" fill="white"/>
<path d="M1 1.3383L59.1872 1L56.7913 28.5627L54.3953 56.1254L29.7514 63.2274L6.13416 56.1254L1 1.3383Z" fill="white" stroke="white" stroke-width="0.740689"/>
<path d="M21.5367 12.5833H28.0399L27.7833 48.2625L11.4396 44.1197V37.0177L21.4512 39.4695L21.5367 12.5833Z" fill="#1C1E1F" stroke="#1C1E1F" stroke-width="0.740689"/>
<path d="M49.9688 12.8726L32.5751 12.752L32.7464 36.0874L42.6724 34.3119L42.4162 39.0465L32.6612 41.2448V48.1778L47.8926 44.6267L48.3204 28.8162L38.7366 29.7463V18.1632L49.8245 18.1971L49.9688 12.8726Z" fill="#1C1E1F" stroke="#1C1E1F" stroke-width="0.740689"/>
</svg>
