<svg width="84" height="95" viewBox="0 0 84 95" fill="none" xmlns="http://www.w3.org/2000/svg">
<path d="M20.1963 65.6H16.956C16.8446 58.6928 16.5274 52.1958 16.0131 46.1196H15.9873L11.0497 65.6H8.58088L3.66895 46.1088H3.64323C3.28319 51.9476 3.05174 58.4446 2.95744 65.5892H0C0.188591 56.9013 0.66864 48.753 1.43157 41.1443H5.45198L10.1325 59.103H10.1582L14.8644 41.1443H18.7048C19.5449 50.0589 20.042 58.2072 20.1963 65.6Z" fill="white"/>
<path d="M34.2549 47.5551C32.9348 56.5991 31.1946 63.161 29.0344 67.2621C27.3542 70.4243 25.5026 72 23.4967 72C22.9652 72 22.3051 71.795 21.5165 71.3956V69.2156C21.9022 69.2911 22.348 69.3235 22.8623 69.3235C23.7967 69.3235 24.5511 68.9997 25.1254 68.3414C25.8112 67.5427 26.1541 66.6577 26.1541 65.6648C26.1541 64.9849 25.8884 63.6035 25.3483 61.4989L21.7908 47.5551H24.9711L27.5257 57.9806C28.1 60.3441 28.34 62.0062 28.2457 62.9451C29.643 58.2396 30.6203 53.1024 31.1689 47.5551H34.2549" fill="white"/>
<path d="M48.4593 58.8224C48.4593 60.8945 47.8592 62.5997 46.6505 63.9272C45.4504 65.2547 43.8302 65.913 41.8072 65.913C39.9127 65.913 38.0782 65.1468 36.2952 63.625L37.1267 61.5205C38.6611 62.481 40.0413 62.9667 41.2842 62.9667C42.4501 62.9667 43.3673 62.6429 44.0274 61.9954C44.6875 61.3478 45.0818 60.4305 45.0818 59.2757C45.0818 57.8187 44.276 56.5883 42.8101 55.5415C41.4557 54.6025 38.7383 52.6383 38.7383 52.6383C37.2638 51.2892 36.5266 49.8323 36.5266 47.4363C36.5266 45.4613 37.0752 43.8532 38.1725 42.6337C39.2698 41.4141 40.6928 40.799 42.4329 40.799C44.2331 40.799 45.8619 41.4033 47.3363 42.6121L46.5905 44.7058C45.3304 44.0367 44.0874 43.6913 42.8616 43.6913C41.8672 43.6913 41.1042 43.9935 40.5642 44.5979C40.0241 45.2023 39.6984 45.9685 39.6984 46.9183C39.6984 48.3645 40.5213 49.6272 42.03 50.6849C43.4016 51.6238 46.1876 53.6312 46.1876 53.6312C47.7049 55.0018 48.4593 56.448 48.4593 58.8224Z" fill="white"/>
<path d="M54.2542 60.7111C53.4655 59.1138 53.0798 56.556 53.0798 53.0377C53.0798 46.886 54.5628 43.7993 57.5288 43.7993C59.0804 43.7993 60.2119 44.5332 60.9406 46.0118C61.7207 47.609 62.115 50.1453 62.115 53.6205C62.115 59.8261 60.632 62.9344 57.666 62.9344C56.1144 62.9128 54.9743 62.1789 54.2542 60.7111ZM65.7839 66.1829L62.2264 63.9704C62.5436 63.6467 62.8436 63.2905 63.1179 62.8804C64.6267 60.6356 65.3896 57.3223 65.3896 52.9189C65.3896 44.8354 62.8779 40.7882 57.846 40.7882C55.3771 40.7882 53.457 41.8135 52.0768 43.8641C50.5681 46.1089 49.8137 49.4222 49.8137 53.7823C49.8137 58.0777 50.4824 61.2292 51.8196 63.2366C53.0369 65.0497 54.8885 65.9562 57.3573 65.9562C58.2746 65.9562 59.1232 65.8159 59.8948 65.5245L64.5324 68.935L65.7839 66.1829Z" fill="white"/>
<path d="M77.4079 65.6H68.1926V41.1443H71.2872V62.5889H77.4079V65.6Z" fill="white"/>
<path d="M79.611 65.5893H80.1253V63.107H80.794V62.5998H78.9081V63.107H79.6024V65.5893H79.611ZM83.52 65.5893H84V62.589H83.2714L82.6799 64.6288L82.037 62.589H81.334V65.5893H81.7884V63.3121H81.8141L82.4913 65.5893H82.8428L83.52 63.3121V65.5893" fill="white"/>
<path d="M81.2911 32.9636C79.4224 32.9097 77.9651 33.1363 76.7478 33.7947C76.3963 33.9673 75.8391 33.9673 75.7877 34.5285C75.9763 34.766 76.002 35.1437 76.1649 35.4783C76.4478 36.0719 76.9364 36.8705 77.3822 37.2806C77.8708 37.7555 78.368 38.2196 78.8823 38.6405C79.791 39.3528 80.8282 39.7629 81.7112 40.4752C82.2255 40.8853 82.7399 41.4249 83.2542 41.8674C83.5114 42.1049 83.6742 42.4934 84 42.6337V42.5474C83.8371 42.2775 83.7857 41.8998 83.6228 41.5976C83.3913 41.3062 83.1513 41.0364 82.9199 40.745C82.2427 39.5902 81.394 38.5865 80.4853 37.7663C79.7395 37.1187 78.0937 36.223 77.7936 35.1437C77.7936 35.1437 77.7679 35.1113 77.7422 35.079C78.2565 35.0142 78.8652 34.7876 79.3538 34.6041C80.151 34.3343 80.8711 34.399 81.694 34.1292C82.0712 34.0105 82.4398 33.8594 82.817 33.7191V33.4493C82.397 32.9205 82.0884 32.2082 81.6426 31.7117C80.451 30.4166 79.1395 29.1431 77.7851 28.0746C77.0564 27.4811 76.122 27.1033 75.3505 26.5961C75.0676 26.4234 74.6047 26.3263 74.4419 26.0349C74.0218 25.3873 73.7818 24.5347 73.4818 23.7577C72.8046 22.1388 72.1445 20.3364 71.5616 18.6204C71.1415 17.4656 70.8844 16.3216 70.37 15.2532C67.9612 10.2347 65.3381 7.19121 61.3177 4.20169C60.4519 3.57573 59.4232 3.31671 58.3259 2.99293C57.743 2.96056 57.1515 2.9066 56.5686 2.87422C56.1914 2.66916 55.8142 2.10795 55.4885 1.83814C54.1512 0.780477 50.7137 -1.52911 49.7365 1.51437C49.1021 3.43543 50.6709 5.32411 51.2109 6.29543C51.6052 6.97536 52.1196 7.74162 52.4025 8.50789C52.5653 9.01514 52.6168 9.54397 52.7797 10.0728C53.1568 11.3679 53.5083 12.8249 53.9969 14.0336C54.2541 14.6488 54.537 15.3071 54.8627 15.8684C55.0513 16.1921 55.3771 16.3432 55.4456 16.8721C55.1199 17.4656 55.0942 18.3506 54.9056 19.0845C54.0655 22.4194 54.3912 26.5529 55.5828 29.0136C55.96 29.7475 56.8429 31.3771 58.043 30.7512C59.0974 30.2223 58.866 28.5387 59.166 27.0602C59.2346 26.704 59.1917 26.4666 59.3289 26.2291V26.2939C59.6546 27.1249 59.989 27.9128 60.289 28.7438C61.0176 30.19 62.2778 31.7009 63.3322 32.7046C63.8894 33.2334 64.3351 34.1508 65.038 34.4746V34.3774H64.9952C64.858 34.1076 64.6437 33.9889 64.4551 33.7839C64.0351 33.255 63.5636 32.5967 63.2379 32.0139C62.252 30.3626 61.3862 28.5279 60.6147 26.6392C60.2376 25.7219 59.9118 24.7182 59.6118 23.8008C59.4746 23.4447 59.4746 22.9158 59.2346 22.7432C58.8831 23.3907 58.3688 23.9519 58.1116 24.7506C57.6659 26.0241 57.623 27.589 57.4516 29.2079C57.3573 29.2402 57.4087 29.2079 57.3573 29.2618C56.6115 29.0244 56.3543 28.0531 56.0714 27.222C55.3685 25.1175 55.2485 21.7503 55.8571 19.3327C56.02 18.7176 56.7229 16.7641 56.44 16.1705C56.2943 15.6093 55.8314 15.2856 55.5742 14.8431C55.2742 14.2819 54.9399 13.5696 54.7341 12.9544C54.1684 11.3031 53.894 9.46842 53.2854 7.81717C53.0025 7.0509 52.5139 6.25226 52.1196 5.53996C51.6738 4.74132 51.1852 4.18011 50.8337 3.24116C50.7137 2.91739 50.5509 2.38856 50.7394 2.0324C50.7823 1.79497 50.8766 1.70863 51.0652 1.64388C51.3652 1.3201 52.231 1.73021 52.5396 1.91369C53.4054 2.35618 54.1341 2.76629 54.8542 3.39226C55.1799 3.68365 55.5314 4.24486 55.9514 4.39596H56.44C57.1858 4.60101 58.0345 4.44992 58.7374 4.71973C59.9804 5.21618 61.1034 5.96087 62.1063 6.75951C65.1666 9.2094 67.6955 12.6954 69.4013 16.8613C69.6842 17.5412 69.8042 18.1564 70.0614 18.8687C70.55 20.3149 71.1587 21.7934 71.6559 23.2072C72.1445 24.5995 72.616 26.0133 73.3189 27.1681C73.6704 27.7832 75.0762 28.107 75.702 28.4416C76.1649 28.7114 76.8935 28.938 77.3136 29.2726C78.1108 29.8878 78.8995 30.6001 79.6538 31.28C80.0567 31.6362 81.2226 32.37 81.2911 32.9636Z" fill="white"/>
<path d="M57.4259 7.28833C57.0316 7.28833 56.7487 7.35308 56.4658 7.43942V7.49339H56.5087C56.6973 7.96826 57.023 8.29203 57.2545 8.70214C57.4431 9.17701 57.6059 9.64109 57.7945 10.116C57.8202 10.0836 57.8374 10.0512 57.8374 10.0512C58.1631 9.75981 58.3346 9.28494 58.3346 8.57263C58.1889 8.36758 58.1717 8.16252 58.0517 7.94667C57.9145 7.67686 57.6145 7.52576 57.4259 7.28833Z" fill="white"/>
<path d="M24.7173 84.7273H26.3295L28.4886 89.9972H28.5739L30.733 84.7273H32.3452V92H31.081V87.0036H31.0135L29.0036 91.9787H28.0589L26.049 86.9929H25.9815V92H24.7173V84.7273ZM34.522 94.0455C34.3468 94.0455 34.1847 94.0313 34.0355 94.0028C33.8887 93.9768 33.7715 93.946 33.6839 93.9105L33.9822 92.9091C34.1693 92.9635 34.3362 92.9896 34.483 92.9872C34.6297 92.9848 34.7588 92.9387 34.87 92.8487C34.9837 92.7611 35.0795 92.6143 35.1577 92.4084L35.2678 92.1136L33.2898 86.5455H34.6534L35.9105 90.6648H35.9673L37.228 86.5455H38.5952L36.4112 92.6605C36.3094 92.9493 36.1745 93.1967 36.0064 93.4027C35.8383 93.611 35.6323 93.7696 35.3885 93.8786C35.147 93.9898 34.8582 94.0455 34.522 94.0455ZM43.494 86.7266C43.4608 86.4164 43.3211 86.175 43.0749 86.0021C42.8311 85.8293 42.5138 85.7429 42.1232 85.7429C41.8486 85.7429 41.613 85.7843 41.4165 85.8672C41.2201 85.95 41.0697 86.0625 40.9656 86.2045C40.8614 86.3466 40.8081 86.5088 40.8058 86.6911C40.8058 86.8426 40.8401 86.974 40.9087 87.0852C40.9798 87.1965 41.0756 87.2912 41.1964 87.3693C41.3171 87.4451 41.4509 87.509 41.5977 87.5611C41.7444 87.6132 41.8924 87.657 42.0415 87.6925L42.7234 87.8629C42.998 87.9268 43.262 88.0133 43.5153 88.1222C43.771 88.2311 43.9994 88.3684 44.2006 88.5341C44.4042 88.6998 44.5652 88.8999 44.6836 89.1342C44.802 89.3686 44.8612 89.6432 44.8612 89.9581C44.8612 90.3842 44.7522 90.7595 44.5344 91.0838C44.3166 91.4058 44.0018 91.6579 43.5898 91.8402C43.1803 92.0201 42.6843 92.1101 42.1019 92.1101C41.5361 92.1101 41.0449 92.0225 40.6282 91.8473C40.2139 91.6721 39.8896 91.4164 39.6552 91.0803C39.4232 90.7441 39.2977 90.3345 39.2788 89.8516H40.5749C40.5939 90.1049 40.672 90.3156 40.8093 90.4837C40.9466 90.6518 41.1254 90.7772 41.3455 90.8601C41.5681 90.9429 41.8166 90.9844 42.0913 90.9844C42.3777 90.9844 42.6287 90.9418 42.8441 90.8565C43.0619 90.7689 43.2324 90.6482 43.3555 90.4943C43.4786 90.3381 43.5413 90.1558 43.5437 89.9474C43.5413 89.758 43.4857 89.6018 43.3768 89.4787C43.2679 89.3532 43.1152 89.2491 42.9187 89.1662C42.7246 89.081 42.4973 89.0052 42.2369 88.9389L41.4094 88.7259C40.8105 88.572 40.337 88.3388 39.989 88.0263C39.6433 87.7114 39.4705 87.2936 39.4705 86.7727C39.4705 86.3442 39.5865 85.969 39.8185 85.647C40.0529 85.325 40.3713 85.0753 40.7738 84.8977C41.1763 84.7178 41.632 84.6278 42.141 84.6278C42.6571 84.6278 43.1093 84.7178 43.4975 84.8977C43.8881 85.0753 44.1947 85.3227 44.4173 85.6399C44.6398 85.9548 44.7546 86.317 44.7617 86.7266H43.494ZM48.7452 89.5568H49.9384L50.6451 90.473L51.1493 91.0696L52.3603 92.625H51.0819L50.258 91.581L49.9064 91.0838L48.7452 89.5568ZM52.5343 88.3636C52.5343 89.1473 52.3875 89.8184 52.0939 90.3771C51.8027 90.9335 51.405 91.3596 50.9007 91.6555C50.3989 91.9515 49.8295 92.0994 49.1926 92.0994C48.5558 92.0994 47.9853 91.9515 47.481 91.6555C46.9791 91.3572 46.5814 90.9299 46.2878 90.3736C45.9966 89.8149 45.851 89.1449 45.851 88.3636C45.851 87.58 45.9966 86.91 46.2878 86.3537C46.5814 85.795 46.9791 85.3677 47.481 85.0717C47.9853 84.7758 48.5558 84.6278 49.1926 84.6278C49.8295 84.6278 50.3989 84.7758 50.9007 85.0717C51.405 85.3677 51.8027 85.795 52.0939 86.3537C52.3875 86.91 52.5343 87.58 52.5343 88.3636ZM51.2097 88.3636C51.2097 87.812 51.1233 87.3468 50.9505 86.968C50.78 86.5869 50.5433 86.2992 50.2402 86.1051C49.9372 85.9086 49.588 85.8104 49.1926 85.8104C48.7973 85.8104 48.4481 85.9086 48.1451 86.1051C47.842 86.2992 47.6041 86.5869 47.4313 86.968C47.2608 87.3468 47.1756 87.812 47.1756 88.3636C47.1756 88.9152 47.2608 89.3816 47.4313 89.7628C47.6041 90.1416 47.842 90.4292 48.1451 90.6257C48.4481 90.8198 48.7973 90.9169 49.1926 90.9169C49.588 90.9169 49.9372 90.8198 50.2402 90.6257C50.5433 90.4292 50.78 90.1416 50.9505 89.7628C51.1233 89.3816 51.2097 88.9152 51.2097 88.3636ZM53.7896 92V84.7273H55.1071V90.8956H58.3102V92H53.7896Z" fill="white"/>
</svg>
