<svg width="150" height="79" viewBox="0 0 150 79" fill="none" xmlns="http://www.w3.org/2000/svg">
<path d="M64.7173 77V69.7273H67.4446C68.0033 69.7273 68.4721 69.8314 68.8509 70.0398C69.232 70.2481 69.5196 70.5346 69.7138 70.8991C69.9103 71.2614 70.0085 71.6733 70.0085 72.1349C70.0085 72.6013 69.9103 73.0156 69.7138 73.3778C69.5173 73.7401 69.2273 74.0253 68.8438 74.2337C68.4602 74.4396 67.9879 74.5426 67.4268 74.5426H65.6193V73.4595H67.2493C67.576 73.4595 67.8435 73.4027 68.0518 73.2891C68.2602 73.1754 68.4141 73.0192 68.5135 72.8203C68.6153 72.6214 68.6662 72.393 68.6662 72.1349C68.6662 71.8769 68.6153 71.6496 68.5135 71.4531C68.4141 71.2566 68.259 71.1039 68.0483 70.995C67.84 70.8838 67.5713 70.8281 67.2422 70.8281H66.0348V77H64.7173ZM71.1529 77V69.7273H72.4703V72.8061H75.8404V69.7273H77.1614V77H75.8404V73.9105H72.4703V77H71.1529ZM78.5943 77V69.7273H81.3216C81.8803 69.7273 82.349 69.8314 82.7278 70.0398C83.109 70.2481 83.3966 70.5346 83.5907 70.8991C83.7872 71.2614 83.8855 71.6733 83.8855 72.1349C83.8855 72.6013 83.7872 73.0156 83.5907 73.3778C83.3942 73.7401 83.1042 74.0253 82.7207 74.2337C82.3372 74.4396 81.8649 74.5426 81.3038 74.5426H79.4963V73.4595H81.1262C81.4529 73.4595 81.7205 73.4027 81.9288 73.2891C82.1371 73.1754 82.291 73.0192 82.3904 72.8203C82.4922 72.6214 82.5431 72.393 82.5431 72.1349C82.5431 71.8769 82.4922 71.6496 82.3904 71.4531C82.291 71.2566 82.1359 71.1039 81.9252 70.995C81.7169 70.8838 81.4482 70.8281 81.1191 70.8281H79.9118V77H78.5943Z" fill="white"/>
<path d="M43.8234 20.4031H37.9125L34.6922 32.3605H39.9422C43.4062 32.3605 45.9938 31.8864 47.7047 30.9348C49.3875 30.0002 50.5359 28.412 51.1219 26.2074C51.7031 24.0909 51.4359 22.5907 50.3672 21.7103C49.2656 20.8467 47.0906 20.4065 43.8234 20.4065V20.4031ZM75 0C33.5672 0 0 12.7701 0 28.5C0 44.2299 33.5672 57 75 57C116.433 57 150 44.2299 150 28.5C150 12.7701 116.433 0 75 0ZM54.6141 33.6507C53.0016 34.7784 51.0281 35.625 48.9 36.133C46.8 36.6104 44.1187 36.8746 40.8703 36.8746H33.4687L31.4438 44.4601H22.8234L30.5156 15.906H47.0672C52.05 15.906 55.6875 16.8406 57.9797 18.7268C60.2531 20.6131 60.9609 23.2612 60.0281 26.6476C59.6906 27.9887 59.0297 29.2755 58.1297 30.4777C57.225 31.6189 56.0812 32.6822 54.6094 33.6507H54.6141ZM79.7859 36.8746L83.1797 24.2331C83.5688 22.8007 83.4234 21.8186 82.7344 21.2836C82.0781 20.7722 80.6344 20.5081 78.4406 20.5081H71.6297L67.2375 36.8746H58.6687L66.3563 8.30347H74.9016L72.8531 15.906H80.4703C85.2844 15.906 88.575 16.5053 90.3844 17.7041C92.2172 18.9232 92.7516 20.8772 92.0484 23.5795L88.4531 36.878L79.7859 36.8746ZM127.242 26.6476C126.905 27.9887 126.267 29.2755 125.344 30.4777C124.462 31.6189 123.295 32.6822 121.852 33.6507C120.216 34.7615 118.266 35.625 116.114 36.133C114.014 36.6104 111.328 36.8746 108.084 36.8746H100.711L98.6625 44.4601H90.0422L97.7344 15.906H114.286C119.269 15.906 122.906 16.8406 125.198 18.7471C127.472 20.6164 128.18 23.2612 127.247 26.6476H127.242ZM111.037 20.4031H105.15L101.93 32.3605H107.156C110.644 32.3605 113.231 31.8864 114.919 30.9348C116.625 30.0002 117.773 28.412 118.364 26.2074C118.945 24.0909 118.678 22.5907 117.577 21.7103C116.508 20.8467 114.309 20.4065 111.037 20.4065V20.4031Z" fill="white"/>
</svg>
