<svg width="85" height="98" viewBox="0 0 85 98" fill="none" xmlns="http://www.w3.org/2000/svg">
<path d="M25.7173 95V87.7273H28.4446C29.0033 87.7273 29.4721 87.8314 29.8509 88.0398C30.232 88.2481 30.5196 88.5346 30.7138 88.8991C30.9103 89.2614 31.0085 89.6733 31.0085 90.1349C31.0085 90.6013 30.9103 91.0156 30.7138 91.3778C30.5173 91.7401 30.2273 92.0253 29.8438 92.2337C29.4602 92.4396 28.9879 92.5426 28.4268 92.5426H26.6193V91.4595H28.2493C28.576 91.4595 28.8435 91.4027 29.0518 91.2891C29.2602 91.1754 29.4141 91.0192 29.5135 90.8203C29.6153 90.6214 29.6662 90.393 29.6662 90.1349C29.6662 89.8769 29.6153 89.6496 29.5135 89.4531C29.4141 89.2566 29.259 89.1039 29.0483 88.995C28.84 88.8838 28.5713 88.8281 28.2422 88.8281H27.0348V95H25.7173ZM32.8951 97.0455C32.7199 97.0455 32.5577 97.0313 32.4086 97.0028C32.2618 96.9768 32.1446 96.946 32.057 96.9105L32.3553 95.9091C32.5423 95.9635 32.7092 95.9896 32.856 95.9872C33.0028 95.9848 33.1318 95.9387 33.2431 95.8487C33.3567 95.7611 33.4526 95.6143 33.5307 95.4084L33.6408 95.1136L31.6628 89.5455H33.0265L34.2836 93.6648H34.3404L35.601 89.5455H36.9682L34.7843 95.6605C34.6825 95.9493 34.5475 96.1967 34.3794 96.4027C34.2114 96.611 34.0054 96.7696 33.7615 96.8786C33.5201 96.9898 33.2312 97.0455 32.8951 97.0455ZM40.5815 89.5455V90.5398H37.4458V89.5455H40.5815ZM38.22 88.2386H39.5055V93.3594C39.5055 93.5322 39.5315 93.6648 39.5836 93.7571C39.6381 93.8471 39.7091 93.9086 39.7967 93.9418C39.8843 93.9749 39.9814 93.9915 40.0879 93.9915C40.1684 93.9915 40.2418 93.9856 40.3081 93.9737C40.3767 93.9619 40.4288 93.9512 40.4643 93.9418L40.6809 94.9467C40.6123 94.9704 40.514 94.9964 40.3862 95.0249C40.2607 95.0533 40.1068 95.0698 39.9245 95.0746C39.6026 95.084 39.3126 95.0355 39.0545 94.929C38.7965 94.8201 38.5917 94.652 38.4402 94.4247C38.291 94.1974 38.2176 93.9134 38.22 93.5724V88.2386ZM43.0593 91.804V95H41.7738V87.7273H43.0309V90.4723H43.0948C43.2227 90.1645 43.4203 89.9219 43.6879 89.7443C43.9577 89.5644 44.301 89.4744 44.7177 89.4744C45.0965 89.4744 45.4267 89.5537 45.7085 89.7124C45.9902 89.871 46.208 90.103 46.3619 90.4084C46.5181 90.7138 46.5962 91.0866 46.5962 91.527V95H45.3107V91.7259C45.3107 91.3589 45.216 91.0736 45.0266 90.87C44.8396 90.6641 44.5768 90.5611 44.2383 90.5611C44.011 90.5611 43.8074 90.6108 43.6275 90.7102C43.4499 90.8073 43.3103 90.9482 43.2085 91.1328C43.109 91.3175 43.0593 91.5412 43.0593 91.804ZM50.2859 95.1065C49.7532 95.1065 49.2915 94.9893 48.9009 94.755C48.5103 94.5206 48.2073 94.1927 47.9918 93.7713C47.7788 93.3499 47.6722 92.8575 47.6722 92.294C47.6722 91.7306 47.7788 91.237 47.9918 90.8132C48.2073 90.3894 48.5103 90.0604 48.9009 89.826C49.2915 89.5916 49.7532 89.4744 50.2859 89.4744C50.8185 89.4744 51.2802 89.5916 51.6708 89.826C52.0614 90.0604 52.3633 90.3894 52.5763 90.8132C52.7918 91.237 52.8995 91.7306 52.8995 92.294C52.8995 92.8575 52.7918 93.3499 52.5763 93.7713C52.3633 94.1927 52.0614 94.5206 51.6708 94.755C51.2802 94.9893 50.8185 95.1065 50.2859 95.1065ZM50.293 94.0767C50.5818 94.0767 50.8233 93.9974 51.0174 93.8388C51.2115 93.6778 51.3559 93.4624 51.4506 93.1925C51.5477 92.9226 51.5962 92.6219 51.5962 92.2905C51.5962 91.9567 51.5477 91.6548 51.4506 91.3849C51.3559 91.1127 51.2115 90.8961 51.0174 90.7351C50.8233 90.5741 50.5818 90.4936 50.293 90.4936C49.997 90.4936 49.7508 90.5741 49.5543 90.7351C49.3602 90.8961 49.2146 91.1127 49.1175 91.3849C49.0228 91.6548 48.9755 91.9567 48.9755 92.2905C48.9755 92.6219 49.0228 92.9226 49.1175 93.1925C49.2146 93.4624 49.3602 93.6778 49.5543 93.8388C49.7508 93.9974 49.997 94.0767 50.293 94.0767ZM55.2761 91.804V95H53.9906V89.5455H55.2193V90.4723H55.2832C55.4087 90.1669 55.6087 89.9242 55.8833 89.7443C56.1603 89.5644 56.5024 89.4744 56.9096 89.4744C57.286 89.4744 57.6139 89.5549 57.8933 89.7159C58.175 89.8769 58.3928 90.1101 58.5467 90.4155C58.7029 90.7209 58.7799 91.0914 58.7775 91.527V95H57.492V91.7259C57.492 91.3613 57.3973 91.076 57.2079 90.87C57.0209 90.6641 56.7617 90.5611 56.4302 90.5611C56.2053 90.5611 56.0053 90.6108 55.8301 90.7102C55.6573 90.8073 55.5211 90.9482 55.4217 91.1328C55.3246 91.3175 55.2761 91.5412 55.2761 91.804Z" fill="#1C1E1F"/>
<path d="M64 9.375C64 4.19733 54.3741 0 42.5 0C30.6259 0 21 4.19733 21 9.375V65.625C21 70.8027 30.6259 75 42.5 75C54.3741 75 64 70.8027 64 65.625V9.375Z" fill="#1C1E1F"/>
<path d="M74.375 19H10.625C4.75697 19 0 27.2827 0 37.5C0 47.7173 4.75697 56 10.625 56H74.375C80.243 56 85 47.7173 85 37.5C85 27.2827 80.243 19 74.375 19Z" fill="#1C1E1F"/>
<path d="M30.5 12C32.433 12 34 10.6569 34 9C34 7.34315 32.433 6 30.5 6C28.567 6 27 7.34315 27 9C27 10.6569 28.567 12 30.5 12Z" fill="white"/>
<path d="M21 17H43" stroke="white" stroke-width="2"/>
<path d="M21 56C21 37.5 26.119 37.5 41.4762 37.5C58.881 37.5 64 37.5 64 19" fill="#1C1E1F"/>
<path d="M21 56C21 37.5 26.119 37.5 41.4762 37.5C58.881 37.5 64 37.5 64 19" stroke="white" stroke-width="2"/>
<path d="M56 69C58.2091 69 60 67.6569 60 66C60 64.3431 58.2091 63 56 63C53.7909 63 52 64.3431 52 66C52 67.6569 53.7909 69 56 69Z" fill="white"/>
</svg>
