<svg xmlns="http://www.w3.org/2000/svg" width="82" height="71" fill="none"><path fill="#1C1E1F" d="M11.717 69v-7.273h2.728c.558 0 1.027.097 1.406.292.381.194.669.466.863.816.196.348.295.754.295 1.218 0 .467-.1.871-.299 1.215a1.97 1.97 0 0 1-.87.792c-.383.184-.854.277-1.413.277h-1.943v-1.094h1.765c.327 0 .595-.045.803-.135a.955.955 0 0 0 .462-.401c.101-.178.152-.396.152-.654s-.05-.478-.152-.66a.971.971 0 0 0-.466-.42c-.208-.096-.477-.145-.806-.145h-1.207V69h-1.318Zm3.757-3.296 1.8 3.296h-1.47l-1.768-3.296h1.438Zm5.027 3.403c-.547 0-1.02-.114-1.417-.341-.395-.23-.7-.554-.912-.973-.213-.422-.32-.918-.32-1.488 0-.561.107-1.054.32-1.478.215-.426.516-.757.901-.994.386-.239.84-.359 1.36-.359.337 0 .654.055.952.164.301.106.566.272.796.497.232.225.414.511.547.86.132.345.198.757.198 1.235v.394h-4.47v-.866h3.238a1.381 1.381 0 0 0-.16-.657 1.16 1.16 0 0 0-.436-.458 1.228 1.228 0 0 0-.647-.167c-.262 0-.493.064-.692.192a1.32 1.32 0 0 0-.465.497 1.43 1.43 0 0 0-.167.67v.757c0 .318.058.59.174.817.116.225.278.398.486.519.209.118.453.177.732.177.187 0 .356-.026.508-.078a1.13 1.13 0 0 0 .394-.238.99.99 0 0 0 .252-.387l1.2.135a1.87 1.87 0 0 1-.433.83c-.21.235-.48.418-.81.548a3.103 3.103 0 0 1-1.129.191Zm5.083.003c-.346 0-.657-.061-.934-.185a1.524 1.524 0 0 1-.654-.554c-.158-.243-.238-.544-.238-.901 0-.308.057-.563.17-.764.114-.201.27-.362.466-.483.197-.12.418-.212.664-.273.249-.064.506-.11.77-.139.32-.033.58-.063.778-.089.2-.028.344-.07.434-.127.092-.06.138-.15.138-.274V65.3c0-.268-.08-.475-.238-.622-.159-.147-.387-.22-.685-.22-.315 0-.565.069-.75.206-.182.137-.305.3-.369.487l-1.2-.17c.095-.332.25-.61.469-.832a2.04 2.04 0 0 1 .799-.504c.314-.114.662-.17 1.044-.17.262 0 .524.03.784.092.26.061.499.163.714.305.216.14.389.33.519.572.132.241.199.543.199.905V69h-1.236v-.75h-.043a1.567 1.567 0 0 1-.86.743c-.21.078-.457.117-.741.117Zm.333-.945c.258 0 .482-.05.672-.152a1.13 1.13 0 0 0 .436-.412 1.05 1.05 0 0 0 .157-.558v-.642a.605.605 0 0 1-.206.092 2.92 2.92 0 0 1-.32.075c-.118.02-.235.04-.351.056l-.302.043a2.248 2.248 0 0 0-.515.128.856.856 0 0 0-.359.248.608.608 0 0 0-.131.405c0 .237.086.416.259.536.173.121.393.181.66.181Zm6.218.941c-.544 0-1.012-.119-1.402-.358a2.395 2.395 0 0 1-.899-.99c-.208-.425-.312-.912-.312-1.464 0-.554.106-1.043.32-1.467.213-.426.513-.757.901-.994.391-.239.853-.359 1.385-.359.443 0 .835.082 1.176.245.343.161.616.39.82.686.204.293.32.637.348 1.03h-1.229a1.175 1.175 0 0 0-.355-.657c-.184-.178-.432-.267-.742-.267a1.16 1.16 0 0 0-.692.213c-.2.14-.354.341-.466.604a2.463 2.463 0 0 0-.163.945c0 .371.055.691.163.959.11.265.262.47.459.614.198.142.432.213.7.213.189 0 .358-.036.507-.107a1.02 1.02 0 0 0 .38-.316c.102-.137.172-.304.21-.5h1.228c-.03.386-.144.728-.34 1.026a2.018 2.018 0 0 1-.803.696c-.339.166-.737.248-1.194.248Zm6.116-5.56v.994h-3.135v-.995h3.135Zm-2.361-1.307h1.285v5.12c0 .173.027.306.079.398.054.09.125.152.213.185.087.033.184.05.29.05.081 0 .155-.006.221-.018.069-.012.12-.023.156-.032l.217 1.005a2.419 2.419 0 0 1-.756.128c-.322.009-.612-.04-.87-.146a1.353 1.353 0 0 1-.615-.504c-.15-.228-.222-.512-.22-.853V62.24ZM41.807 69v-5.455h1.246v.91h.057c.1-.315.27-.558.512-.728.243-.173.522-.26.834-.26.071 0 .15.004.238.011.09.005.165.013.224.025v1.182a1.349 1.349 0 0 0-.26-.05 2.382 2.382 0 0 0-.337-.024 1.3 1.3 0 0 0-.632.152c-.185.1-.33.238-.437.416a1.17 1.17 0 0 0-.16.614V69h-1.285Zm6.12.106c-.533 0-.995-.117-1.386-.351a2.387 2.387 0 0 1-.908-.984c-.214-.421-.32-.913-.32-1.477 0-.563.106-1.057.32-1.48.215-.425.518-.754.908-.988.391-.234.853-.352 1.386-.352.532 0 .994.118 1.384.352.391.234.693.563.906.987.215.424.323.918.323 1.481 0 .564-.108 1.056-.323 1.477-.213.422-.515.75-.906.984-.39.234-.852.352-1.385.352Zm.007-1.03c.288 0 .53-.079.724-.237.194-.161.339-.377.433-.647.097-.27.146-.57.146-.901 0-.334-.049-.636-.146-.906a1.433 1.433 0 0 0-.433-.65 1.097 1.097 0 0 0-.724-.241c-.296 0-.542.08-.739.241-.194.161-.34.378-.437.65-.095.27-.142.572-.142.905 0 .332.047.633.142.902.097.27.243.486.437.647.197.158.443.238.739.238Zm7.174-1.37v-3.16h1.285V69h-1.246v-.97h-.057a1.64 1.64 0 0 1-.607.75c-.28.194-.624.291-1.034.291-.357 0-.673-.08-.948-.238a1.654 1.654 0 0 1-.639-.7c-.154-.307-.23-.679-.23-1.114v-3.474h1.285v3.275c0 .345.094.62.284.824.19.203.438.305.746.305.189 0 .372-.046.55-.139a1.12 1.12 0 0 0 .437-.412c.116-.184.174-.415.174-.692Zm5.33-3.16v.994h-3.135v-.995h3.136Zm-2.36-1.307h1.285v5.12c0 .173.026.306.078.398.054.09.125.152.213.185s.185.05.291.05c.08 0 .154-.006.22-.018.07-.012.121-.023.157-.032l.216 1.005a2.419 2.419 0 0 1-.756.128c-.322.009-.612-.04-.87-.146a1.353 1.353 0 0 1-.614-.504c-.15-.228-.223-.512-.22-.853V62.24Zm5.792 6.867c-.547 0-1.019-.113-1.417-.34-.395-.23-.7-.554-.912-.973-.213-.422-.32-.918-.32-1.488 0-.561.107-1.054.32-1.478.215-.426.516-.757.902-.994.386-.239.839-.359 1.36-.359.336 0 .653.055.951.164.301.106.566.272.796.497.232.225.414.511.547.86.132.345.199.757.199 1.235v.394h-4.471v-.866h3.238a1.382 1.382 0 0 0-.16-.657 1.161 1.161 0 0 0-.436-.458 1.228 1.228 0 0 0-.646-.167c-.263 0-.494.064-.693.192a1.322 1.322 0 0 0-.465.497 1.431 1.431 0 0 0-.167.67v.757c0 .318.058.59.174.817.116.225.278.398.486.519.209.118.453.177.732.177.187 0 .356-.026.508-.078a1.13 1.13 0 0 0 .394-.238.992.992 0 0 0 .252-.387l1.2.135c-.075.317-.22.594-.433.83-.21.235-.48.418-.81.548-.329.128-.705.191-1.129.191ZM67.383 69v-5.455h1.247v.91h.056a1.36 1.36 0 0 1 1.346-.988c.071 0 .15.004.238.011.09.005.165.013.224.025v1.182a1.348 1.348 0 0 0-.26-.05 2.38 2.38 0 0 0-.337-.024 1.3 1.3 0 0 0-.632.152c-.184.1-.33.238-.436.416a1.17 1.17 0 0 0-.16.614V69h-1.286ZM41.403 0a7.221 7.221 0 0 0-2.128.3c-.95.252-2.399 1.245-3.257 2.186-1.4 1.586-1.674 2.284-2.261 5.508-.274 1.586 1.4 5.362 2.894 6.502 1.537 1.188 3.706 1.882 7.055 2.28 4.882.6 6.286 2.384 6.286 8.237 0 5.163-1.315 6.55-6.696 7.146-5.832.645-8.815 3.128-9.447 7.938-.362 2.928 1.4 6.6 3.844 7.84 5.558 2.88 10.762-.742 11.845-8.234.72-4.814 2.125-6.156 6.826-6.55 5.426-.499 8.231-2.53 9.27-6.7.95-3.825-1.039-8.088-4.432-9.576-.902-.398-2.982-.893-4.612-1.091-5.108-.6-6.42-1.59-6.963-5.212-.769-5.013-1.083-5.857-2.713-7.837a7.514 7.514 0 0 0-2.49-2.012A6.876 6.876 0 0 0 41.403 0ZM25.055 16.348a6.706 6.706 0 0 0-1.699.18c-5.019 1.192-7.414 7.69-4.612 12.355 4.025 6.651 13.475 3.573 13.564-4.414.041-4.473-3.348-8.035-7.253-8.121ZM7.137 32.711c-.491.013-.98.078-1.46.195-7.372 1.784-7.642 13.595-.361 15.68 1.81.544 1.988.544 3.796.049 4.069-1.193 6.375-5.46 5.292-9.775-.95-3.825-3.909-6.24-7.267-6.15Zm67.73.03c-.795.007-1.629.217-2.678.607-4.749 1.789-6.375 7.844-3.348 12.508 1.903 2.977 6.697 3.967 9.635 1.935 4.838-3.277 4.657-11.462-.318-14.045-1.298-.698-2.265-1.017-3.29-1.005Z"/></svg>