<svg width="70" height="85" viewBox="0 0 70 85" fill="none" xmlns="http://www.w3.org/2000/svg">
<path d="M57.5522 20.4192C56.8065 20.1621 56.0555 19.9226 55.2992 19.7009C55.4246 19.1857 55.5403 18.6675 55.6462 18.1465C57.3524 9.77103 56.2368 3.02357 52.4293 0.802387C48.7836 -1.32901 42.8047 0.892176 36.7733 6.203C36.1802 6.72702 35.5994 7.26674 35.0306 7.82216C34.6515 7.45319 34.2626 7.09207 33.864 6.7388C27.5424 1.05998 21.2062 -1.33195 17.403 0.896592C13.7573 3.0324 12.6738 9.37507 14.2094 17.3133C14.363 18.0984 14.5356 18.88 14.7271 19.6582C13.8303 19.9158 12.964 20.191 12.1357 20.4825C4.73355 23.0952 0 27.1917 0 31.4397C0 35.8291 5.08062 40.2303 12.7993 42.8989C13.4253 43.1138 14.0573 43.3135 14.695 43.498C14.4879 44.3311 14.3047 45.1736 14.1452 46.0254C12.687 53.8268 13.8244 60.0193 17.4628 62.1418C21.2208 64.3336 27.5249 62.0815 33.6701 56.65C34.1561 56.2202 34.6422 55.7663 35.1283 55.2884C35.7428 55.888 36.3747 56.4699 37.0241 57.0342C42.9738 62.2125 48.8492 64.3042 52.4818 62.1757C56.2368 59.9766 57.4574 53.3233 55.8723 45.229C55.7507 44.6108 55.6107 43.9798 55.4523 43.3361C55.8956 43.2036 56.3297 43.0667 56.7545 42.9254C64.775 40.2362 70 35.888 70 31.4441C69.9971 27.1755 65.1119 23.0525 57.5522 20.4192ZM38.7405 8.48454C43.9071 3.93471 48.7369 2.13893 50.9389 3.42247C53.2824 4.78992 54.1938 10.3039 52.7209 17.5356C52.6237 18.0066 52.5187 18.4762 52.4059 18.9443C49.3226 18.2364 46.1959 17.7368 43.0468 17.4488C41.2436 14.827 39.2671 12.3313 37.1305 9.97858C37.6536 9.46634 38.1892 8.96832 38.7376 8.48454H38.7405ZM20.6681 35.0696C21.301 36.306 21.9626 37.5273 22.6528 38.7333C23.3557 39.9638 24.0882 41.1763 24.8504 42.3705C22.6835 42.1327 20.5302 41.7824 18.399 41.321C19.0173 39.3015 19.7786 37.2039 20.6681 35.0696ZM20.6681 27.9556C19.7931 25.8669 19.0523 23.812 18.4442 21.8278C20.4421 21.376 22.5711 21.0065 24.7906 20.7268C24.0469 21.8985 23.3314 23.0873 22.6441 24.2934C21.9567 25.4994 21.2966 26.7201 20.6637 27.9556H20.6681ZM22.2576 31.5133C23.1792 29.5733 24.1718 27.6705 25.2354 25.8051C26.298 23.9406 27.4291 22.1188 28.6288 20.3397C30.7112 20.1807 32.8461 20.0968 35.0029 20.0968C37.1597 20.0968 39.3077 20.1807 41.3887 20.3412C42.5757 22.1163 43.7001 23.9318 44.7617 25.7874C45.8233 27.6431 46.829 29.537 47.7788 31.4692C46.8417 33.4161 45.8384 35.3267 44.769 37.201C43.7083 39.0655 42.5903 40.8927 41.4149 42.6826C39.3369 42.8298 37.186 42.9107 34.9985 42.9107C32.8111 42.9107 30.701 42.8415 28.6609 42.7076C27.4525 40.9226 26.3121 39.0929 25.2398 37.2186C24.1675 35.3443 23.172 33.4426 22.2532 31.5133H22.2576ZM47.3574 38.7127C48.0622 37.4782 48.7389 36.2275 49.3873 34.9607C50.2762 36.995 51.0608 39.0742 51.7381 41.19C49.5818 41.6801 47.4016 42.056 45.2065 42.316C45.9473 41.1296 46.6642 39.9285 47.3574 38.7127ZM49.3582 27.9571C48.7126 26.7157 48.0413 25.4891 47.3443 24.2772C46.6638 23.082 45.9545 21.9014 45.2167 20.7356C47.4493 21.0212 49.5915 21.401 51.5995 21.8646C50.9539 23.932 50.2058 25.9654 49.3582 27.9571V27.9571ZM35.0321 12.1409C36.4882 13.7469 37.8632 15.4261 39.1517 17.172C36.3956 17.0396 33.6375 17.0396 30.8775 17.172C32.238 15.3556 33.6307 13.6702 35.0321 12.1409ZM18.908 3.51226C21.2499 2.1404 26.4283 4.10105 31.8866 8.99825C32.2351 9.31178 32.5866 9.64003 32.9365 9.98005C30.789 12.3324 28.7985 14.826 26.978 17.4444C23.8358 17.7301 20.7154 18.2218 17.6363 18.9163C17.4584 18.1941 17.298 17.4669 17.1551 16.7349C15.8354 9.93 16.7089 4.80023 18.908 3.51226ZM15.4941 40.5835C14.9108 40.4157 14.3348 40.2337 13.7661 40.0374C10.3537 38.8599 7.53489 37.3232 5.59977 35.6495C3.86734 34.1496 2.98946 32.6526 2.98946 31.4397C2.98946 28.8623 6.78972 25.574 13.1274 23.344C13.9236 23.0643 14.7266 22.8087 15.5364 22.5771C16.4777 25.6303 17.6176 28.6176 18.9488 31.5192C17.6017 34.461 16.4477 37.489 15.4941 40.5835V40.5835ZM31.6999 54.3714C28.9832 56.7736 26.262 58.4767 23.8632 59.3348C21.7078 60.1047 19.9915 60.1267 18.9546 59.5218C16.7468 58.2338 15.8281 53.2601 17.0807 46.5891C17.2295 45.8041 17.3996 45.019 17.5911 44.234C20.701 44.9102 23.8528 45.372 27.0247 45.6162C28.8629 48.2482 30.8699 50.7559 33.0328 53.1232C32.5982 53.5544 32.1535 53.9695 31.6999 54.3714ZM35.1152 50.9535C33.6978 49.4065 32.2832 47.6946 30.9037 45.8546C32.2444 45.9076 33.6093 45.9341 34.9985 45.9341C36.4247 45.9341 37.8363 45.9032 39.2275 45.8399C37.9437 47.6138 36.5711 49.3206 35.1152 50.9535V50.9535ZM53.2736 55.1618C52.8566 57.4345 52.018 58.9506 50.9812 59.5571C48.7748 60.8495 44.0573 59.17 38.9709 54.7408C38.3876 54.2345 37.8043 53.6913 37.2107 53.1217C39.3315 50.7452 41.2915 48.2273 43.0774 45.5853C46.2669 45.3125 49.434 44.8182 52.5561 44.1059C52.6991 44.6888 52.8254 45.26 52.9353 45.8193C53.6367 49.3962 53.7373 52.6315 53.2736 55.1618V55.1618ZM55.811 40.0536C55.4289 40.1817 55.0352 40.3053 54.6356 40.426C53.6566 37.3584 52.4722 34.3614 51.0906 31.4559C52.4204 28.5892 53.5584 25.6357 54.4971 22.6153C55.2131 22.8258 55.9087 23.0466 56.5781 23.2807C63.0557 25.5357 67.0076 28.8741 67.0076 31.4397C67.0076 34.1776 62.7393 37.7309 55.811 40.0536V40.0536Z" fill="white"/>
<path d="M34.9772 38C36.3626 38.0042 37.7183 37.6265 38.8724 36.9148C40.0265 36.2031 40.9273 35.1895 41.4606 34.0021C41.9939 32.8148 42.1358 31.5072 41.8683 30.2449C41.6007 28.9826 40.9359 27.8225 39.9578 26.9113C38.9798 26.0001 37.7325 25.379 36.374 25.1265C35.0156 24.8739 33.6069 25.0014 32.3265 25.4928C31.0461 25.9841 29.9515 26.8172 29.1813 27.8866C28.4111 28.9559 28 30.2135 28 31.5C27.9981 32.3523 28.1771 33.1966 28.5268 33.9846C28.8764 34.7727 29.3899 35.489 30.0379 36.0927C30.6859 36.6963 31.4556 37.1755 32.3032 37.5027C33.1507 37.83 34.0593 37.999 34.9772 38Z" fill="white"/>
<path d="M15.7173 83V75.7273H18.4446C19.0033 75.7273 19.4721 75.8243 19.8509 76.0185C20.232 76.2126 20.5196 76.4848 20.7138 76.8352C20.9103 77.1832 21.0085 77.5893 21.0085 78.0533C21.0085 78.5196 20.9091 78.9245 20.7102 79.2678C20.5137 79.6087 20.2237 79.8726 19.8402 80.0597C19.4567 80.2443 18.9856 80.3366 18.4268 80.3366H16.4844V79.2429H18.2493C18.576 79.2429 18.8435 79.1979 19.0518 79.108C19.2602 79.0156 19.4141 78.8819 19.5135 78.7067C19.6153 78.5291 19.6662 78.3113 19.6662 78.0533C19.6662 77.7952 19.6153 77.575 19.5135 77.3928C19.4117 77.2081 19.2566 77.0684 19.0483 76.9737C18.84 76.8767 18.5713 76.8281 18.2422 76.8281H17.0348V83H15.7173ZM19.4744 79.7045L21.2749 83H19.8047L18.0362 79.7045H19.4744ZM24.5011 83.1065C23.9542 83.1065 23.4819 82.9929 23.0842 82.7656C22.6888 82.536 22.3846 82.2116 22.1715 81.7926C21.9585 81.3712 21.8519 80.8752 21.8519 80.3047C21.8519 79.7436 21.9585 79.2512 22.1715 78.8274C22.387 78.4013 22.6876 78.0698 23.0735 77.8331C23.4594 77.594 23.9128 77.4744 24.4336 77.4744C24.7698 77.4744 25.087 77.5289 25.3853 77.6378C25.686 77.7443 25.9511 77.91 26.1808 78.1349C26.4128 78.3598 26.5951 78.6463 26.7276 78.9943C26.8602 79.34 26.9265 79.7519 26.9265 80.2301V80.6243H22.4556V79.7578H25.6942C25.6919 79.5116 25.6386 79.2926 25.5344 79.1009C25.4303 78.9067 25.2847 78.754 25.0977 78.6428C24.913 78.5315 24.6976 78.4759 24.4513 78.4759C24.1886 78.4759 23.9577 78.5398 23.7589 78.6676C23.56 78.7931 23.4049 78.9588 23.2937 79.1648C23.1848 79.3684 23.1291 79.5921 23.1268 79.8359V80.5923C23.1268 80.9096 23.1848 81.1818 23.3008 81.4091C23.4168 81.634 23.579 81.8068 23.7873 81.9276C23.9956 82.0459 24.2395 82.1051 24.5188 82.1051C24.7058 82.1051 24.8751 82.0791 25.0266 82.027C25.1781 81.9725 25.3095 81.8932 25.4208 81.7891C25.5321 81.6849 25.6161 81.5559 25.6729 81.402L26.8732 81.5369C26.7975 81.8542 26.6531 82.1312 26.44 82.3679C26.2293 82.6023 25.9594 82.7846 25.6303 82.9148C25.3013 83.0426 24.9248 83.1065 24.5011 83.1065ZM29.5836 83.1101C29.238 83.1101 28.9267 83.0485 28.6497 82.9254C28.3751 82.8 28.1573 82.6153 27.9963 82.3714C27.8377 82.1276 27.7583 81.8269 27.7583 81.4695C27.7583 81.1617 27.8152 80.9072 27.9288 80.706C28.0424 80.5047 28.1975 80.3438 28.394 80.223C28.5905 80.1023 28.8118 80.0111 29.0581 79.9496C29.3066 79.8857 29.5635 79.8395 29.8287 79.8111C30.1483 79.7779 30.4075 79.7483 30.6064 79.7223C30.8052 79.6939 30.9496 79.6513 31.0396 79.5945C31.1319 79.5353 31.1781 79.4441 31.1781 79.321V79.2997C31.1781 79.0322 31.0988 78.825 30.9402 78.6783C30.7815 78.5315 30.5531 78.4581 30.2548 78.4581C29.9399 78.4581 29.6902 78.5268 29.5055 78.6641C29.3232 78.8014 29.2001 78.9635 29.1362 79.1506L27.9359 78.9801C28.0306 78.6487 28.1868 78.3717 28.4047 78.1491C28.6225 77.9242 28.8888 77.7562 29.2037 77.6449C29.5185 77.5312 29.8665 77.4744 30.2477 77.4744C30.5105 77.4744 30.7721 77.5052 31.0325 77.5668C31.2929 77.6283 31.5308 77.7301 31.7463 77.8722C31.9617 78.0118 32.1345 78.2024 32.2647 78.4439C32.3973 78.6854 32.4636 78.9872 32.4636 79.3494V83H31.2278V82.2507H31.1852C31.1071 82.4022 30.997 82.5443 30.8549 82.6768C30.7153 82.8071 30.5389 82.9124 30.3258 82.9929C30.1151 83.071 29.8677 83.1101 29.5836 83.1101ZM29.9174 82.1655C30.1755 82.1655 30.3992 82.1146 30.5886 82.0128C30.778 81.9086 30.9236 81.7713 31.0254 81.6009C31.1296 81.4304 31.1816 81.2446 31.1816 81.0433V80.4006C31.1414 80.4337 31.0727 80.4645 30.9757 80.4929C30.881 80.5213 30.7744 80.5462 30.6561 80.5675C30.5377 80.5888 30.4205 80.6077 30.3045 80.6243C30.1885 80.6409 30.0879 80.6551 30.0027 80.6669C29.8109 80.6929 29.6393 80.7356 29.4877 80.7947C29.3362 80.8539 29.2167 80.9368 29.1291 81.0433C29.0415 81.1475 28.9977 81.2824 28.9977 81.4482C28.9977 81.6849 29.0841 81.8636 29.2569 81.9844C29.4297 82.1051 29.6499 82.1655 29.9174 82.1655ZM36.1355 83.1065C35.591 83.1065 35.1234 82.987 34.7328 82.7479C34.3445 82.5088 34.045 82.1785 33.8343 81.7571C33.626 81.3333 33.5218 80.8456 33.5218 80.294C33.5218 79.7401 33.6284 79.2512 33.8414 78.8274C34.0545 78.4013 34.3552 78.0698 34.7434 77.8331C35.1341 77.594 35.5957 77.4744 36.1284 77.4744C36.5711 77.4744 36.9629 77.5561 37.3038 77.7195C37.6471 77.8804 37.9205 78.1089 38.1241 78.4048C38.3277 78.6984 38.4437 79.0417 38.4721 79.4347H37.2434C37.1937 79.1719 37.0753 78.9529 36.8883 78.7777C36.7037 78.6001 36.4563 78.5114 36.1461 78.5114C35.8833 78.5114 35.6525 78.5824 35.4537 78.7244C35.2548 78.8641 35.0997 79.0653 34.9885 79.3281C34.8796 79.5909 34.8251 79.9058 34.8251 80.2727C34.8251 80.6444 34.8796 80.964 34.9885 81.2315C35.0974 81.4967 35.2501 81.7015 35.4466 81.8459C35.6454 81.9879 35.8786 82.0589 36.1461 82.0589C36.3355 82.0589 36.5048 82.0234 36.6539 81.9524C36.8055 81.879 36.9321 81.7737 37.0339 81.6364C37.1357 81.4991 37.2056 81.3321 37.2434 81.1357H38.4721C38.4413 81.5215 38.3277 81.8636 38.1312 82.1619C37.9347 82.4579 37.6672 82.6899 37.3287 82.858C36.9901 83.0237 36.5924 83.1065 36.1355 83.1065ZM42.2514 77.5455V78.5398H39.1158V77.5455H42.2514ZM39.8899 76.2386H41.1754V81.3594C41.1754 81.5322 41.2015 81.6648 41.2536 81.7571C41.308 81.8471 41.379 81.9086 41.4666 81.9418C41.5542 81.9749 41.6513 81.9915 41.7578 81.9915C41.8383 81.9915 41.9117 81.9856 41.978 81.9737C42.0466 81.9619 42.0987 81.9512 42.1342 81.9418L42.3509 82.9467C42.2822 82.9704 42.1839 82.9964 42.0561 83.0249C41.9306 83.0533 41.7768 83.0698 41.5945 83.0746C41.2725 83.084 40.9825 83.0355 40.7244 82.929C40.4664 82.8201 40.2616 82.652 40.1101 82.4247C39.9609 82.1974 39.8875 81.9134 39.8899 81.5724V76.2386ZM46.2527 75.7273H47.5595V80.8409C47.5571 81.3097 47.4577 81.7133 47.2612 82.0518C47.0647 82.388 46.7901 82.6473 46.4373 82.8295C46.0869 83.0095 45.6786 83.0994 45.2122 83.0994C44.786 83.0994 44.4025 83.0237 44.0616 82.8722C43.7231 82.7183 43.4544 82.491 43.2555 82.1903C43.0566 81.8897 42.9572 81.5156 42.9572 81.0682H44.2676C44.2699 81.2647 44.3126 81.4339 44.3954 81.576C44.4806 81.718 44.5978 81.8269 44.747 81.9027C44.8961 81.9785 45.0678 82.0163 45.2619 82.0163C45.4726 82.0163 45.6513 81.9725 45.7981 81.8849C45.9449 81.795 46.0562 81.6624 46.1319 81.4872C46.21 81.312 46.2503 81.0966 46.2527 80.8409V75.7273ZM52.9412 77.7266C52.9081 77.4164 52.7684 77.175 52.5222 77.0021C52.2784 76.8293 51.9611 76.7429 51.5705 76.7429C51.2959 76.7429 51.0603 76.7843 50.8638 76.8672C50.6673 76.95 50.517 77.0625 50.4128 77.2045C50.3087 77.3466 50.2554 77.5088 50.253 77.6911C50.253 77.8426 50.2873 77.974 50.356 78.0852C50.427 78.1965 50.5229 78.2912 50.6436 78.3693C50.7644 78.4451 50.8981 78.509 51.0449 78.5611C51.1917 78.6132 51.3397 78.657 51.4888 78.6925L52.1706 78.8629C52.4453 78.9268 52.7092 79.0133 52.9625 79.1222C53.2182 79.2311 53.4467 79.3684 53.6479 79.5341C53.8515 79.6998 54.0125 79.8999 54.1309 80.1342C54.2492 80.3686 54.3084 80.6432 54.3084 80.9581C54.3084 81.3842 54.1995 81.7595 53.9817 82.0838C53.7639 82.4058 53.449 82.6579 53.0371 82.8402C52.6275 83.0201 52.1316 83.1101 51.5492 83.1101C50.9834 83.1101 50.4921 83.0225 50.0755 82.8473C49.6612 82.6721 49.3368 82.4164 49.1025 82.0803C48.8704 81.7441 48.745 81.3345 48.726 80.8516H50.0222C50.0411 81.1049 50.1193 81.3156 50.2566 81.4837C50.3939 81.6518 50.5726 81.7772 50.7928 81.8601C51.0153 81.9429 51.2639 81.9844 51.5385 81.9844C51.825 81.9844 52.0759 81.9418 52.2914 81.8565C52.5092 81.7689 52.6796 81.6482 52.8027 81.4943C52.9258 81.3381 52.9886 81.1558 52.9909 80.9474C52.9886 80.758 52.9329 80.6018 52.824 80.4787C52.7151 80.3532 52.5624 80.2491 52.3659 80.1662C52.1718 80.081 51.9445 80.0052 51.6841 79.9389L50.8567 79.7259C50.2578 79.572 49.7843 79.3388 49.4363 79.0263C49.0906 78.7114 48.9178 78.2936 48.9178 77.7727C48.9178 77.3442 49.0338 76.969 49.2658 76.647C49.5002 76.325 49.8186 76.0753 50.2211 75.8977C50.6235 75.7178 51.0792 75.6278 51.5882 75.6278C52.1043 75.6278 52.5565 75.7178 52.9448 75.8977C53.3354 76.0753 53.642 76.3227 53.8645 76.6399C54.0871 76.9548 54.2019 77.317 54.209 77.7266H52.9412Z" fill="white"/>
</svg>
