<svg width="64" height="83" viewBox="0 0 64 83" fill="none" xmlns="http://www.w3.org/2000/svg">
<path d="M16.7173 81V73.7273H19.4446C20.0033 73.7273 20.4721 73.8243 20.8509 74.0185C21.232 74.2126 21.5196 74.4848 21.7138 74.8352C21.9103 75.1832 22.0085 75.5893 22.0085 76.0533C22.0085 76.5196 21.9091 76.9245 21.7102 77.2678C21.5137 77.6087 21.2237 77.8726 20.8402 78.0597C20.4567 78.2443 19.9856 78.3366 19.4268 78.3366H17.4844V77.2429H19.2493C19.576 77.2429 19.8435 77.1979 20.0518 77.108C20.2602 77.0156 20.4141 76.8819 20.5135 76.7067C20.6153 76.5291 20.6662 76.3113 20.6662 76.0533C20.6662 75.7952 20.6153 75.575 20.5135 75.3928C20.4117 75.2081 20.2566 75.0684 20.0483 74.9737C19.84 74.8767 19.5713 74.8281 19.2422 74.8281H18.0348V81H16.7173ZM20.4744 77.7045L22.2749 81H20.8047L19.0362 77.7045H20.4744ZM25.5011 81.1065C24.9542 81.1065 24.4819 80.9929 24.0842 80.7656C23.6888 80.536 23.3846 80.2116 23.1715 79.7926C22.9585 79.3712 22.8519 78.8752 22.8519 78.3047C22.8519 77.7436 22.9585 77.2512 23.1715 76.8274C23.387 76.4013 23.6876 76.0698 24.0735 75.8331C24.4594 75.594 24.9128 75.4744 25.4336 75.4744C25.7698 75.4744 26.087 75.5289 26.3853 75.6378C26.686 75.7443 26.9511 75.91 27.1808 76.1349C27.4128 76.3598 27.5951 76.6463 27.7276 76.9943C27.8602 77.34 27.9265 77.7519 27.9265 78.2301V78.6243H23.4556V77.7578H26.6942C26.6919 77.5116 26.6386 77.2926 26.5344 77.1009C26.4303 76.9067 26.2847 76.754 26.0977 76.6428C25.913 76.5315 25.6976 76.4759 25.4513 76.4759C25.1886 76.4759 24.9577 76.5398 24.7589 76.6676C24.56 76.7931 24.4049 76.9588 24.2937 77.1648C24.1848 77.3684 24.1291 77.5921 24.1268 77.8359V78.5923C24.1268 78.9096 24.1848 79.1818 24.3008 79.4091C24.4168 79.634 24.579 79.8068 24.7873 79.9276C24.9956 80.0459 25.2395 80.1051 25.5188 80.1051C25.7058 80.1051 25.8751 80.0791 26.0266 80.027C26.1781 79.9725 26.3095 79.8932 26.4208 79.7891C26.5321 79.6849 26.6161 79.5559 26.6729 79.402L27.8732 79.5369C27.7975 79.8542 27.6531 80.1312 27.44 80.3679C27.2293 80.6023 26.9594 80.7846 26.6303 80.9148C26.3013 81.0426 25.9248 81.1065 25.5011 81.1065ZM31.0382 81.0959C30.6097 81.0959 30.2261 80.9858 29.8876 80.7656C29.5491 80.5455 29.2815 80.2259 29.085 79.8068C28.8886 79.3878 28.7903 78.8788 28.7903 78.2798C28.7903 77.6738 28.8897 77.1624 29.0886 76.7457C29.2898 76.3267 29.5609 76.0107 29.9018 75.7976C30.2427 75.5821 30.6227 75.4744 31.0417 75.4744C31.3613 75.4744 31.6241 75.5289 31.8301 75.6378C32.036 75.7443 32.1994 75.8733 32.3201 76.0249C32.4409 76.174 32.5344 76.3149 32.6007 76.4474H32.6539V73.7273H33.943V81H32.6788V80.1406H32.6007C32.5344 80.2732 32.4385 80.4141 32.313 80.5632C32.1876 80.71 32.0218 80.8355 31.8159 80.9396C31.6099 81.0438 31.3507 81.0959 31.0382 81.0959ZM31.3968 80.0412C31.6691 80.0412 31.9011 79.9678 32.0929 79.821C32.2846 79.6719 32.4302 79.4647 32.5297 79.1996C32.6291 78.9344 32.6788 78.6255 32.6788 78.2727C32.6788 77.92 32.6291 77.6134 32.5297 77.353C32.4326 77.0926 32.2882 76.8902 32.0964 76.7457C31.907 76.6013 31.6738 76.5291 31.3968 76.5291C31.1104 76.5291 30.8713 76.6037 30.6795 76.7528C30.4877 76.902 30.3433 77.108 30.2463 77.3707C30.1492 77.6335 30.1007 77.9342 30.1007 78.2727C30.1007 78.6136 30.1492 78.9179 30.2463 79.1854C30.3457 79.4505 30.4913 79.66 30.6831 79.8139C30.8772 79.9654 31.1151 80.0412 31.3968 80.0412ZM38.7894 78.706V75.5455H40.0749V81H38.8285V80.0305H38.7717C38.6486 80.3359 38.4461 80.5857 38.1644 80.7798C37.8851 80.974 37.5406 81.071 37.131 81.071C36.7736 81.071 36.4575 80.9917 36.1829 80.8331C35.9106 80.6721 35.6976 80.4389 35.5437 80.1335C35.3898 79.8258 35.3129 79.4541 35.3129 79.0185V75.5455H36.5984V78.8196C36.5984 79.1652 36.6931 79.4399 36.8825 79.6435C37.0719 79.8471 37.3204 79.9489 37.6282 79.9489C37.8176 79.9489 38.0011 79.9027 38.1786 79.8104C38.3562 79.718 38.5018 79.5807 38.6154 79.3984C38.7314 79.2138 38.7894 78.983 38.7894 78.706ZM42.448 75.5455L43.5488 77.5589L44.6674 75.5455H46.0275L44.3833 78.2727L46.0559 81H44.7029L43.5488 79.0362L42.4054 81H41.0417L42.7037 78.2727L41.0843 75.5455H42.448Z" fill="#1C1E1F"/>
<path d="M44.3452 41.9035C46.707 41.6621 48.4987 39.6515 48.4172 37.2385C48.336 34.8257 46.2997 32.8954 43.8565 32.8954H43.6937C41.1687 32.9759 39.2142 35.0669 39.2957 37.5602C39.3772 38.7667 39.8657 39.8122 40.5987 40.5361C37.8297 45.9249 33.5947 49.8659 27.2422 53.1634C22.9257 55.4155 18.4465 56.2198 13.9672 55.6569C10.3022 55.1743 7.45175 53.5658 5.65975 50.9114C3.05375 46.9705 2.8095 42.7076 5.0085 38.445C6.556 35.3886 8.999 33.1366 10.5465 32.0106C10.2207 30.965 9.732 29.1957 9.48775 27.9089C-2.3215 36.3539 -1.09975 47.7748 2.48375 53.1634C5.17125 57.1851 10.628 59.6783 16.6547 59.6783C18.2835 59.6783 19.9122 59.5174 21.5412 59.1154C31.966 57.1046 39.866 50.9919 44.3452 41.9035ZM58.6792 31.9303C52.4895 24.7721 43.368 20.8312 32.9432 20.8312H31.6402C30.9072 19.3835 29.3597 18.4182 27.6495 18.4182H27.4865C24.962 18.4986 23.0075 20.5897 23.0887 23.0832C23.1702 25.4959 25.2062 27.4263 27.6495 27.4263H27.8122C29.604 27.3458 31.1515 26.2198 31.803 24.6916H33.269C39.4587 24.6916 45.3225 26.461 50.6165 29.9195C54.6885 32.5737 57.6205 36.0322 59.2492 40.2144C60.6337 43.5924 60.5522 46.89 59.0862 49.7051C56.806 53.9678 52.9782 56.3003 47.9287 56.3003C44.671 56.3003 41.5762 55.335 39.9472 54.6111C39.0515 55.4155 37.4225 56.7022 36.2822 57.5068C39.7845 59.1152 43.368 60 46.7885 60C54.607 60 60.3895 55.7371 62.5885 51.4745C64.9502 46.8095 64.7872 38.7667 58.6792 31.9303ZM17.3062 43.2705C17.3877 45.6835 19.4237 47.6136 21.867 47.6136H22.03C24.5547 47.5334 26.5092 45.442 26.4277 42.9488C26.3465 40.5358 24.3102 38.6057 21.867 38.6057H21.7042C21.5412 38.6057 21.2967 38.6057 21.1342 38.6859C17.795 33.2168 16.4105 27.2653 16.8992 20.8309C17.2247 16.0052 18.8537 11.8228 21.7042 8.36426C24.066 5.38838 28.6267 3.94068 31.7217 3.86045C40.3545 3.69948 44.0192 14.316 44.2637 18.5789C45.3225 18.8201 47.1142 19.3832 48.336 19.7854C47.3585 6.75609 39.2142 0 31.396 0C24.066 0 17.3062 5.22791 14.6185 12.9491C10.8722 23.2439 13.3155 33.1366 17.8762 40.9382C17.4692 41.5011 17.2247 42.3857 17.3062 43.2705Z" fill="#1C1E1F"/>
</svg>
