<svg width="87" height="85" viewBox="0 0 87 85" fill="none" xmlns="http://www.w3.org/2000/svg">
<path d="M74.8974 36.211C71.8532 36.2241 69.2168 36.9328 67.0153 37.9827C66.2135 36.421 65.3845 35.0561 65.2486 34.0324C65.0855 32.8381 64.9088 32.1295 65.0991 30.7121C65.2893 29.2947 66.1455 27.2867 66.1319 27.1424C66.1183 26.998 65.9417 26.2762 64.1886 26.2631C62.4355 26.2499 60.927 26.5912 60.7503 27.0374C60.5736 27.4836 60.2339 28.4941 60.0301 29.544C59.7175 31.0795 56.5239 36.5653 54.7164 39.4264C54.1185 38.3108 53.6156 37.3265 53.5069 36.5391C53.3438 35.3448 53.1672 34.6361 53.3574 33.2187C53.5477 31.8014 54.4038 29.7934 54.3903 29.649C54.3767 29.5047 54.2 28.7828 52.4469 28.7697C50.6938 28.7566 49.1853 29.0978 49.0087 29.544C48.832 29.9903 48.6417 31.0402 48.2884 32.0507C47.9351 33.0613 43.6814 42.1955 42.5671 44.5709C41.9963 45.7783 41.507 46.7495 41.1537 47.4057C40.8004 48.0619 41.1265 47.4451 41.0993 47.5238C40.8004 48.0882 40.6237 48.4031 40.6237 48.4031V48.4162C40.3927 48.8362 40.1345 49.2168 40.0122 49.2168C39.9306 49.2168 39.7539 48.1144 40.0529 46.6051C40.6916 43.4292 42.2001 38.4946 42.1865 38.3239C42.1729 38.2321 42.4719 37.379 41.1945 36.9197C39.9578 36.4866 39.5093 37.2084 39.4006 37.2084C39.2919 37.2084 39.2103 37.4709 39.2103 37.4709C39.2103 37.4709 40.5829 31.9063 36.5739 31.9063C34.0734 31.9063 30.5944 34.5574 28.882 36.9591C27.8084 37.5234 25.4846 38.7439 23.0384 40.0432C22.1007 40.5419 21.1358 41.0537 20.2253 41.5393C20.1573 41.4737 20.103 41.4081 20.035 41.3424C15.1698 36.3291 6.18693 32.7856 6.56745 26.0531C6.70335 23.5989 7.58669 17.155 23.8402 9.33318C37.1583 2.9287 47.8127 4.68731 49.6474 8.59824C52.2838 14.1759 43.9532 24.5569 30.1187 26.0531C24.8458 26.6174 22.0735 24.6488 21.3804 23.9139C20.6602 23.1396 20.5514 23.1002 20.2796 23.2446C19.8312 23.4808 20.1166 24.1632 20.2796 24.5701C20.6873 25.6069 22.3861 27.4442 25.2807 28.3629C27.822 29.1634 34.0054 29.6097 41.4799 26.8143C49.8784 23.6908 56.4151 14.9896 54.499 7.70582C52.542 0.303918 39.8355 -2.12401 27.8084 1.99691C20.6466 4.45108 12.9003 8.30952 7.32848 13.336C0.710207 19.3205 -0.349805 24.5307 0.0850715 26.7093C1.63432 34.4393 12.6693 39.4789 17.086 43.206C16.8686 43.3242 16.6647 43.4292 16.4745 43.5341C14.2593 44.5972 5.84718 48.8493 3.74075 53.3377C1.36252 58.4298 4.13486 62.0783 5.9559 62.577C11.6365 64.0993 17.4529 61.3564 20.5786 56.8549C23.7043 52.3534 23.3238 46.4739 21.8832 43.7966C21.8697 43.7573 21.8425 43.731 21.8289 43.6916C22.3997 43.3635 22.984 43.0354 23.5684 42.7073C24.6964 42.0643 25.7971 41.4737 26.762 40.9619C26.2184 42.3792 25.8243 44.0854 25.6205 46.5527C25.3758 49.4399 26.6125 53.1802 28.2161 54.6501C28.9228 55.2932 29.779 55.3063 30.309 55.3063C32.1844 55.3063 33.0269 53.8102 33.9647 52.0253C35.1198 49.8468 36.139 47.3138 36.139 47.3138C36.139 47.3138 34.8616 54.1645 38.3542 54.1645C39.6316 54.1645 40.9091 52.5765 41.4799 51.7628V51.776C41.4799 51.776 41.507 51.7235 41.575 51.6185C41.7109 51.4216 41.7788 51.3035 41.7788 51.3035V51.2641C42.2953 50.4111 43.4232 48.4556 45.1219 45.2271C47.3235 41.0537 49.4299 35.8435 49.4299 35.8435C49.4299 35.8435 49.6202 37.1165 50.2725 39.2295C50.653 40.4763 51.4548 41.8412 52.0936 43.1667C51.5771 43.8491 51.2646 44.2428 51.2646 44.2428C51.2646 44.2428 51.2646 44.256 51.2782 44.2691C50.8705 44.794 50.4084 45.3584 49.9328 45.9096C48.1933 47.9044 46.1276 50.188 45.8558 50.8442C45.5296 51.6185 45.6112 52.1959 46.2363 52.6422C46.6984 52.9834 47.5138 53.0359 48.3699 52.9703C49.9328 52.8653 51.0335 52.4978 51.5636 52.2616C52.4061 51.9728 53.3846 51.5135 54.3087 50.8704C56.0074 49.663 57.0403 47.9307 56.9451 45.6471C56.8908 44.3872 56.4695 43.1273 55.9531 41.9462C56.1026 41.7362 56.2657 41.5131 56.4151 41.29C59.1059 37.4971 61.1852 33.3369 61.1852 33.3369C61.1852 33.3369 61.3755 34.6099 62.0278 36.7228C62.3539 37.7859 62.9926 38.9539 63.577 40.0957C61.0493 42.0774 59.4865 44.3741 58.9429 45.8833C57.9372 48.6787 58.7254 49.9386 60.2067 50.2274C60.8726 50.3586 61.8239 50.0567 62.5306 49.768C63.4139 49.4793 64.4739 49.0199 65.466 48.3113C67.1647 47.1039 68.8091 45.4109 68.7004 43.1142C68.6596 42.0774 68.3607 41.0406 67.9665 40.0432C70.1002 39.177 72.8725 38.7045 76.4059 39.0983C83.9754 39.9513 85.4567 44.5184 85.1713 46.4214C84.886 48.3375 83.2959 49.3874 82.7659 49.7024C82.2359 50.0174 82.0728 50.1355 82.1136 50.3717C82.1816 50.7129 82.4262 50.6998 82.8746 50.6211C83.4998 50.5161 86.8429 49.0724 86.9924 45.5421C87.2098 41.08 82.7659 36.1716 74.8974 36.211V36.211ZM16.556 55.2013C14.0555 57.8392 10.5493 58.8366 9.04081 57.9967C7.42361 57.0912 8.06233 53.2065 11.1472 50.398C13.0226 48.6919 15.4416 47.117 17.0452 46.1458C17.4122 45.9358 17.9422 45.6209 18.5945 45.2403C18.7032 45.1746 18.7576 45.1484 18.7576 45.1484C18.8799 45.0696 19.0158 45.004 19.1517 44.9253C20.2796 48.915 19.1924 52.4322 16.556 55.2013V55.2013ZM34.8208 43.206C33.9511 45.2665 32.1164 50.5161 31.0021 50.2405C30.0508 50.0042 29.4664 46.0014 30.8118 42.0643C31.4913 40.0826 32.9318 37.7202 33.788 36.8016C35.1606 35.3186 36.669 34.8461 37.0224 35.4367C37.498 36.211 35.3644 41.9199 34.8208 43.206ZM49.9056 50.1617C49.5387 50.3455 49.1989 50.4636 49.0358 50.3717C48.9135 50.3061 49.1853 50.0567 49.1853 50.0567C49.1853 50.0567 51.0743 48.1013 51.8218 47.2088C52.2566 46.6839 52.7595 46.0671 53.3031 45.3846C53.3031 45.4502 53.3166 45.5159 53.3166 45.5946C53.3031 47.9438 50.9656 49.5318 49.9056 50.1617V50.1617ZM61.5385 47.6026C61.2667 47.4188 61.3075 46.802 62.218 44.8859C62.5714 44.1378 63.3868 42.8779 64.8001 41.6705C64.9632 42.1693 65.0583 42.6417 65.0583 43.0879C65.0447 46.0408 62.8567 47.1432 61.5385 47.6026Z" fill="white"/>
<path d="M34.6697 77.7266C34.6366 77.4164 34.4969 77.175 34.2507 77.0021C34.0069 76.8293 33.6896 76.7429 33.299 76.7429C33.0244 76.7429 32.7888 76.7843 32.5923 76.8672C32.3958 76.95 32.2455 77.0625 32.1413 77.2045C32.0372 77.3466 31.9839 77.5088 31.9815 77.6911C31.9815 77.8426 32.0159 77.974 32.0845 78.0852C32.1555 78.1965 32.2514 78.2912 32.3722 78.3693C32.4929 78.4451 32.6267 78.509 32.7734 78.5611C32.9202 78.6132 33.0682 78.657 33.2173 78.6925L33.8991 78.8629C34.1738 78.9268 34.4377 79.0133 34.6911 79.1222C34.9467 79.2311 35.1752 79.3684 35.3764 79.5341C35.58 79.6998 35.741 79.8999 35.8594 80.1342C35.9777 80.3686 36.0369 80.6432 36.0369 80.9581C36.0369 81.3842 35.928 81.7595 35.7102 82.0838C35.4924 82.4058 35.1776 82.6579 34.7656 82.8402C34.3561 83.0201 33.8601 83.1101 33.2777 83.1101C32.7119 83.1101 32.2206 83.0225 31.804 82.8473C31.3897 82.6721 31.0653 82.4164 30.831 82.0803C30.599 81.7441 30.4735 81.3345 30.4545 80.8516H31.7507C31.7696 81.1049 31.8478 81.3156 31.9851 81.4837C32.1224 81.6518 32.3011 81.7772 32.5213 81.8601C32.7438 81.9429 32.9924 81.9844 33.267 81.9844C33.5535 81.9844 33.8045 81.9418 34.0199 81.8565C34.2377 81.7689 34.4081 81.6482 34.5312 81.4943C34.6544 81.3381 34.7171 81.1558 34.7195 80.9474C34.7171 80.758 34.6615 80.6018 34.5526 80.4787C34.4437 80.3532 34.291 80.2491 34.0945 80.1662C33.9003 80.081 33.6731 80.0052 33.4126 79.9389L32.5852 79.7259C31.9863 79.572 31.5128 79.3388 31.1648 79.0263C30.8191 78.7114 30.6463 78.2936 30.6463 77.7727C30.6463 77.3442 30.7623 76.969 30.9943 76.647C31.2287 76.325 31.5471 76.0753 31.9496 75.8977C32.352 75.7178 32.8078 75.6278 33.3168 75.6278C33.8329 75.6278 34.285 75.7178 34.6733 75.8977C35.0639 76.0753 35.3705 76.3227 35.593 76.6399C35.8156 76.9548 35.9304 77.317 35.9375 77.7266H34.6697ZM43.4366 78.1811H42.1085C42.0706 77.9633 42.0008 77.7704 41.899 77.6023C41.7972 77.4318 41.6705 77.2874 41.519 77.169C41.3675 77.0507 41.1947 76.9619 41.0005 76.9027C40.8088 76.8411 40.6016 76.8104 40.3791 76.8104C39.9837 76.8104 39.6333 76.9098 39.3279 77.1087C39.0225 77.3052 38.7834 77.594 38.6106 77.9751C38.4378 78.3539 38.3514 78.8168 38.3514 79.3636C38.3514 79.92 38.4378 80.3887 38.6106 80.7699C38.7858 81.1487 39.0249 81.4351 39.3279 81.6293C39.6333 81.821 39.9825 81.9169 40.3755 81.9169C40.5933 81.9169 40.7969 81.8885 40.9863 81.8317C41.1781 81.7725 41.3497 81.6861 41.5012 81.5724C41.6551 81.4588 41.7842 81.3191 41.8883 81.1534C41.9949 80.9877 42.0682 80.7983 42.1085 80.5852L43.4366 80.5923C43.3869 80.938 43.2792 81.2623 43.1135 81.5653C42.9501 81.8684 42.7359 82.1359 42.4707 82.3679C42.2056 82.5975 41.8954 82.7775 41.5403 82.9077C41.1852 83.0355 40.791 83.0994 40.3578 83.0994C39.7186 83.0994 39.148 82.9515 38.6461 82.6555C38.1442 82.3596 37.7489 81.9323 37.46 81.3736C37.1712 80.8149 37.0268 80.1449 37.0268 79.3636C37.0268 78.58 37.1724 77.91 37.4636 77.3537C37.7548 76.795 38.1513 76.3677 38.6532 76.0717C39.1551 75.7758 39.7233 75.6278 40.3578 75.6278C40.7626 75.6278 41.139 75.6847 41.487 75.7983C41.835 75.9119 42.1452 76.0788 42.4174 76.299C42.6897 76.5168 42.9134 76.7843 43.0886 77.1016C43.2662 77.4164 43.3822 77.7763 43.4366 78.1811ZM48.5955 77.7266C48.5624 77.4164 48.4227 77.175 48.1765 77.0021C47.9326 76.8293 47.6154 76.7429 47.2248 76.7429C46.9502 76.7429 46.7146 76.7843 46.5181 76.8672C46.3216 76.95 46.1713 77.0625 46.0671 77.2045C45.9629 77.3466 45.9097 77.5088 45.9073 77.6911C45.9073 77.8426 45.9416 77.974 46.0103 78.0852C46.0813 78.1965 46.1772 78.2912 46.2979 78.3693C46.4187 78.4451 46.5524 78.509 46.6992 78.5611C46.846 78.6132 46.994 78.657 47.1431 78.6925L47.8249 78.8629C48.0996 78.9268 48.3635 79.0133 48.6168 79.1222C48.8725 79.2311 49.101 79.3684 49.3022 79.5341C49.5058 79.6998 49.6668 79.8999 49.7852 80.1342C49.9035 80.3686 49.9627 80.6432 49.9627 80.9581C49.9627 81.3842 49.8538 81.7595 49.636 82.0838C49.4182 82.4058 49.1033 82.6579 48.6914 82.8402C48.2818 83.0201 47.7859 83.1101 47.2035 83.1101C46.6377 83.1101 46.1464 83.0225 45.7298 82.8473C45.3155 82.6721 44.9911 82.4164 44.7567 82.0803C44.5247 81.7441 44.3993 81.3345 44.3803 80.8516H45.6765C45.6954 81.1049 45.7736 81.3156 45.9109 81.4837C46.0482 81.6518 46.2269 81.7772 46.4471 81.8601C46.6696 81.9429 46.9182 81.9844 47.1928 81.9844C47.4793 81.9844 47.7302 81.9418 47.9457 81.8565C48.1635 81.7689 48.3339 81.6482 48.457 81.4943C48.5801 81.3381 48.6429 81.1558 48.6452 80.9474C48.6429 80.758 48.5872 80.6018 48.4783 80.4787C48.3694 80.3532 48.2167 80.2491 48.0202 80.1662C47.8261 80.081 47.5988 80.0052 47.3384 79.9389L46.511 79.7259C45.9121 79.572 45.4386 79.3388 45.0906 79.0263C44.7449 78.7114 44.5721 78.2936 44.5721 77.7727C44.5721 77.3442 44.6881 76.969 44.9201 76.647C45.1545 76.325 45.4729 76.0753 45.8754 75.8977C46.2778 75.7178 46.7335 75.6278 47.2425 75.6278C47.7586 75.6278 48.2108 75.7178 48.5991 75.8977C48.9897 76.0753 49.2963 76.3227 49.5188 76.6399C49.7414 76.9548 49.8562 77.317 49.8633 77.7266H48.5955ZM55.0897 77.7266C55.0565 77.4164 54.9168 77.175 54.6706 77.0021C54.4268 76.8293 54.1096 76.7429 53.7189 76.7429C53.4443 76.7429 53.2087 76.7843 53.0123 76.8672C52.8158 76.95 52.6654 77.0625 52.5613 77.2045C52.4571 77.3466 52.4038 77.5088 52.4015 77.6911C52.4015 77.8426 52.4358 77.974 52.5044 78.0852C52.5755 78.1965 52.6713 78.2912 52.7921 78.3693C52.9128 78.4451 53.0466 78.509 53.1934 78.5611C53.3401 78.6132 53.4881 78.657 53.6373 78.6925L54.3191 78.8629C54.5937 78.9268 54.8577 79.0133 55.111 79.1222C55.3667 79.2311 55.5951 79.3684 55.7963 79.5341C55.9999 79.6998 56.1609 79.8999 56.2793 80.1342C56.3977 80.3686 56.4569 80.6432 56.4569 80.9581C56.4569 81.3842 56.348 81.7595 56.1301 82.0838C55.9123 82.4058 55.5975 82.6579 55.1855 82.8402C54.776 83.0201 54.28 83.1101 53.6976 83.1101C53.1318 83.1101 52.6406 83.0225 52.2239 82.8473C51.8096 82.6721 51.4853 82.4164 51.2509 82.0803C51.0189 81.7441 50.8934 81.3345 50.8745 80.8516H52.1706C52.1896 81.1049 52.2677 81.3156 52.405 81.4837C52.5423 81.6518 52.7211 81.7772 52.9412 81.8601C53.1638 81.9429 53.4123 81.9844 53.687 81.9844C53.9734 81.9844 54.2244 81.9418 54.4398 81.8565C54.6576 81.7689 54.8281 81.6482 54.9512 81.4943C55.0743 81.3381 55.137 81.1558 55.1394 80.9474C55.137 80.758 55.0814 80.6018 54.9725 80.4787C54.8636 80.3532 54.7109 80.2491 54.5144 80.1662C54.3203 80.081 54.093 80.0052 53.8326 79.9389L53.0051 79.7259C52.4062 79.572 51.9327 79.3388 51.5847 79.0263C51.2391 78.7114 51.0662 78.2936 51.0662 77.7727C51.0662 77.3442 51.1822 76.969 51.4142 76.647C51.6486 76.325 51.967 76.0753 52.3695 75.8977C52.772 75.7178 53.2277 75.6278 53.7367 75.6278C54.2528 75.6278 54.705 75.7178 55.0932 75.8977C55.4838 76.0753 55.7904 76.3227 56.013 76.6399C56.2355 76.9548 56.3503 77.317 56.3574 77.7266H55.0897Z" fill="white"/>
</svg>
