<svg width="72" height="87" viewBox="0 0 72 87" fill="none" xmlns="http://www.w3.org/2000/svg">
<path d="M0.505293 2.01825L0.505305 2.0184L6.67592 76.5866C6.67592 76.5867 6.67593 76.5868 6.67594 76.5869C6.72551 77.1812 7.10546 77.6513 7.59057 77.8014L0.505293 2.01825ZM0.505293 2.01825C0.47197 1.61703 0.597129 1.22427 0.840113 0.938667C1.08348 0.652615 1.41499 0.5 1.75302 0.5H70.247C70.5849 0.5 70.9162 0.652442 71.1595 0.938179C71.402 1.225 71.528 1.61837 71.4948 2.01825L71.4948 2.01842M0.505293 2.01825L71.4948 2.01842M71.4948 2.01842L65.3276 76.5866M71.4948 2.01842L65.3276 76.5866M65.3276 76.5866C65.3276 76.5867 65.3276 76.5868 65.3276 76.5869M65.3276 76.5866L65.3276 76.5869M65.3276 76.5869C65.2781 77.1812 64.8982 77.6512 64.4131 77.8013L65.3276 76.5869ZM35.6542 86.4496L7.59095 77.8015H64.4126L36.3248 86.4496C36.3245 86.4497 36.3241 86.4498 36.3238 86.45C36.214 86.4831 36.1002 86.5 35.9895 86.5C35.8788 86.5 35.765 86.4831 35.6552 86.4499C35.6549 86.4498 35.6545 86.4497 35.6542 86.4496ZM13.3541 50.5938L12.7108 50.4012V51.0728V60.4253V60.7976L13.0674 60.9043L32.3506 66.6747L32.994 66.8672V66.1957V17.0217V16.5217H32.494H25.4819H24.9819V17.0217V54.0741L13.3541 50.5938ZM59.3824 37.8658L59.4326 37.2364L58.8084 37.3318L47.0182 39.1351V25.087H59.9375H60.3991L60.4359 24.6268L61.0407 17.0616L61.0839 16.5217H60.5423H39.5061H39.0061V17.0217V49.1739V49.7754L39.5974 49.6655L51.2386 47.5017L50.8615 53.6054L39.3639 57.0144L39.0061 57.1205V57.4938V66.1957V66.8655L39.6483 66.675L57.1785 61.4739L57.5074 61.3763L57.5347 61.0343L59.3824 37.8658Z" fill="#1C1E1F" stroke="#1C1E1F"/>
</svg>
